<svg xmlns="http://www.w3.org/2000/svg" width="119.042" height="38.273" viewBox="0 0 119.042 38.273">
    <defs>
        <style>
            .cls-1{fill:#d21780}
        </style>
    </defs>
    <g id="Layer_2" data-name="Layer 2" transform="translate(0 .01)">
        <g id="Layer_1" data-name="Layer 1" transform="translate(0 -.01)">
            <path id="Path_465" d="M117.683 18.972c.427.187.7.407.5.771l-.814-.18-.568.174-.436-.151-.328.158-.715-.184-.417.141-.368-.154-.6.18-.633-.177-.427.164-.269-.292h-.328l-.217.312-.4-.381-.794.328-.217-.092c-.21.033-.44.085-.676.105s-.45 0-.866 0l.692.328.538-.167.446.328.45-.213.623.2.541-.17c.351.148.863-.043 1.03.023a3.715 3.715 0 0 0 1.26.128.614.614 0 0 0 .108.187 1.562 1.562 0 0 0 .246.174 9.1 9.1 0 0 1-2.839.233l-1.989.574-.131-.4-.466-.013-.135.453-.345-.125a9.441 9.441 0 0 1-1.152.118 10.648 10.648 0 0 1-1.211-.131l-.459.253a2.881 2.881 0 0 0 .82.171 3.131 3.131 0 0 1 1.08 0 9.572 9.572 0 0 1 1.211.121 10.375 10.375 0 0 0 1.949.026l-.328.217c.207.226.581.263 1.126.217v-.269c.22.02.555-.075.594.154l-.036-.023-.24.105.092.046a1.168 1.168 0 0 0 .187-.128c.509-.079.692.171 1 .285l.348-.158 1.7.361a5.243 5.243 0 0 1-1.4.2 1.467 1.467 0 0 0-1.073.053l-.574-.167a2.553 2.553 0 0 1-.948.072c-.154.03-.1.085-.053.082a2.5 2.5 0 0 0 .407-.066c-.177-.023-.351-.049-.354-.016a1.677 1.677 0 0 1 .64.328l-.453.7-.935-.459c-.036.223-.053.328-.079.5l1.391.259.161-.568.5.226c.112.056.213.115.476.256l.128-.532-.866-.066v-.23h2.245c.03.2.217.433-.226.633l.436.276.656-.19a29.913 29.913 0 0 0 3.879.194l-.391.391h-1.864c-.072 0-.138-.066-.328-.158-.085.141-.167.282-.184.312h-1.126l-.814.305v-.361l-.883.246.305.207-.436.075-.42-.45v.774l-.837-.171-.492.459 1.293.443.446-.377.755.21.391-.148 1.175.328.43-.358 1.523.538-1.615.686-.423-.2-.82.328-.243-.125-.4.19c.039.036.056.089.112.1.436.115.883.22 1.313.328l-.44.433h-1.752l-.43.223.564.108c0 .092.026.223.053.433l-.6-.1-1.969.1c-.02.062-.036.131-.062.233h3.383c.059.105.105.19.164.3l.945.072-.965.328a.866.866 0 0 1 .512 1.112c-.623-.131-1.175.4-1.861 0l-.509.259a4.352 4.352 0 0 1 1.273.046c.407.272.794-.18 1.211.062a4.119 4.119 0 0 0 1.224.069c.42.01.85 0 1.477 0a14.759 14.759 0 0 1-3.091.5 27.968 27.968 0 0 1-3.094.131c-.016 0-.056.036-.046.049a.161.161 0 0 0 .1.053h2.491l.738.269a3.073 3.073 0 0 1-.633.328c-.525-.082-1.011.249-1.513 0a6.43 6.43 0 0 1-1.969.151c-.358.381.473.23.545.4a5.27 5.27 0 0 1 1.67-.089l.722.719H112.5v.715l-.469.046-.226-.328-.384.364-.656-.213-.7.177-.358-.167-.62.328-.387-.367c-.121.364-.866.6-.391 1l.758-.433.906.955h-1.234c-.036.236-.069.42-.115.7l-.4-.436-.837.308a.755.755 0 0 0-.85.033l-.371-.167c-.348-.128-.479.348-.968.108-.328-.158-.676.135-1.106.062a8.149 8.149 0 0 0-1.175 0v.328l.4-.174.738.453c.814-.394 1.47.167 2.212-.026l.148.459h.368l.282-.305c.131.131.256.253.4.4a10.242 10.242 0 0 1-2.871.656c-.4.046-.745-.138-1.227-.02a5.467 5.467 0 0 1-1.434 0 15.9 15.9 0 0 1-3.239-.121c-.738.328-1.775-.082-2.363.23l-1.762-.138-.246.364-.328-.3a22.807 22.807 0 0 0-2.868-.171 12.426 12.426 0 0 0-1.237.272l-.269-.121-.368.187c.085.135.164.249.328.489l-.722-.328.292.453a12.644 12.644 0 0 1 1.4-.043 11.23 11.23 0 0 0 3.949-.134c.223-.033.466-.023.7-.043.656-.056 1.286.4 1.953.023.722 0 1.441 0 2.163-.02s1.467-.049 2.172 0c.43.039.689-.187 1.122-.082a10.264 10.264 0 0 0 1.313.118l-1.683.338.584.61-.351.18a28.761 28.761 0 0 0-4.02.154c-.282-.243-.729 0-1.106-.066-.433-.062-.866-.112-1.368-.177l-.292.135a4.328 4.328 0 0 0-2.953-.1l.4.236a18.843 18.843 0 0 1-2.832-.1c-1.06-.079-1.792.446-2.753.085a1.211 1.211 0 0 0-.564 0 11.622 11.622 0 0 1-2.789.138 4.922 4.922 0 0 1-1.217-.105c-.413-.1-1.155.18-1.565.085a17.922 17.922 0 0 0-2.08-.131 7.5 7.5 0 0 1-1-.263l-.334.14-.984-.217v-.637c-.725.026-.555.328-.584.532h-.528v-.7l-1.267-.033.236.394-.83.276.788.292-.679.459-1.024-.482c-.121.2-.217.348-.249.407-1.414 0-2.52.02-3.61 0a6.959 6.959 0 0 1-2.222-.125c-.614.24-1.45.043-2.064.279H60.9a2.534 2.534 0 0 1-.4.207c-.3.1-.63.171-.958.256l-.591-.446c-.715-.1-1.339.358-2.018.03a2.5 2.5 0 0 1-1.67-.121l.285-.164-.856-.9v.656c-.561.089-1.211-.082-1.49.354.072.118.187.328.305.509-.279.115-.289-.069-.538-.082l-1.549.3-.627-.19-.328.328-.594-.285-.591.463c-.108-.131-.174-.217-.243-.3l-.623.391-.292-.712c-.115.3-.174.453-.259.656l-1-.368a2.208 2.208 0 0 0-.656 0 4.043 4.043 0 0 1-1.765.328L44 41.23l-.555.151-.561-.312 1.6-.305-.922-.328-1.385.118-.391-.623h.692l.1.121c.066-.039.131-.082.121-.121h.522l.279.328c.1-.351.1-.351-.328-.594a3.57 3.57 0 0 0-.479.282h-.223v-.377l-.61-.328c-1.2.174-2.51-.026-3.416.42l-.6-.2-.587.171-.564-.161a5.615 5.615 0 0 1-1.687.158c-.391 0-.761.223-1.178.033-.328.213-.811.069-1.217.108s-.948-.1-1.352.141c-.072.043-.443-.075-.656-.069a11.925 11.925 0 0 0-1.237.082c-.351.036-.692.131-1.04.135-.4 0-.8-.056-1.359-.1l-1.854.3-.391-.24c.062-.105.072-.18.118-.187a6.662 6.662 0 0 1 1.313-.2 12.394 12.394 0 0 0 3.1-.276 1.145 1.145 0 0 1 .282 0 21.689 21.689 0 0 0 2.747-.187c-.207-.328-.8-.328-1.145-.243a5.3 5.3 0 0 1-1.782.115c-.469-.033-.906.256-1.359 0a7.408 7.408 0 0 1-1.431.2.761.761 0 0 0-.194.085 3.157 3.157 0 0 0-2.048.036l-.45-.308h1.175c-.069-.089-.089-.151-.128-.154-.486-.049-.984-.092-1.592-.148l.2.391-.328.075-.548-.578.984-.085-.246-.351.827-.22.453.164 1.582-.3.328.085 2.75-.194.289.105 2.531-.445.217.105c.87 0 1.526-.4 2.418-.138l1.181-.22c.358.391 1.083-.285 1.477.092.41-.292 1.06-.059 1.592-.187A12.562 12.562 0 0 1 41 36.918l.482-.226a6.367 6.367 0 0 0-.784-.266c-.154.03-.1.085-.056.082a4.046 4.046 0 0 0 .407-.062c-.174-.026-.348-.053-.351-.02.223.184.1.282-.033.381l-.492-.174-.443.171-.41-.21.358-.2-1.057-.026-.62.5c-.085-.135-.141-.217-.194-.3-.509.177-1.07-.046-1.615.059-.259.049-1.05.075-1.588.2l-.482-.174c-1.139.427-2.583-.082-3.784.305a3.006 3.006 0 0 1-.715 0 7.983 7.983 0 0 0-1.716.023c-.555.144-.912-.066-1.382-.043a19.8 19.8 0 0 0-2.238.328l-.328-.328a13.016 13.016 0 0 1-1.349.292c-.413.046-.86 0-1.29.023s-.984-.108-1.365.167l-.584-.44-.863-.072 1.421-.249.312.138.42-.144 1.254.328.706-.5.633.18 1.2-.194v-.259l-.784.115-.285-.1c-.348 0-.689.328-1.067 0-.328.18-.984.046-1.129.151-.394.266-.719.02-1.057.046-.41.033-.824.056-1.234.089s-.794.079-1.313.128l-.407-.289-.7.2-.207-.289 1.119-.069.4-.2-.561-.253.43-.45 1.585.545-.328.19.515.072.141-.469h.535l-.043.023.2.121.092-.046a2.254 2.254 0 0 0-.253-.1.334.334 0 0 0-.026-.148l.039.023.24-.1-.079-.066a1.431 1.431 0 0 0-.187.128h-.384l-.84-.207.525-.541-1.158.171-.456-.207a1.113 1.113 0 0 1 .354-.174c.62-.079 1.277-.1 1.861-.213.43-.085.814.03 1.191-.026s.827-.171 1.24-.256l1.431.282 1.575-.433.617.177.24-.341.784.328v-.479h.492l.171-.453.745.328v-.469a5.846 5.846 0 0 0-1.47.023c-.525.187-.886-.2-1.231 0s-.9-.128-1.26.115v-.63l.751.184.079-.41h-1.6l-.42-.574a16.972 16.972 0 0 1-4.594.144l-.781.23-.8-.213.328-.305-.453-.075c-.072.171-.135.328-.217.522l-.492-.656h-1.131v-.066l3.61-.328a6.536 6.536 0 0 0 2.953-.138l.942.121v-.515l-.9.213-.765-.358-.328.112-.84-.384a.256.256 0 0 1 .108-.121c.253-.141.528-.276.834-.43l-.354-.256.259-.148-1.247-.328a4.381 4.381 0 0 1 2.419-.351l-.328-.532.584-.1a2.38 2.38 0 0 0-.135-.131l1.5.171.466-.3c-.121-.072-.171-.131-.236-.138a8.752 8.752 0 0 1-1.5-.125 7.713 7.713 0 0 0-1.743.072l-.154-.066-1.916.148-.538-.706c.538-.151.85-.394.791-.745l-.354-.18-1.112.656h-1.865a12.4 12.4 0 0 1 1.841-1.07v-.42l.328-.177 1.172.092c-.049-.135-.026-.23-.105-.263-.269-.105-.574-.19-.912-.3l.984-.509.433.141a16.845 16.845 0 0 1 4.023-.269c.62-.184.479-.44.456-.679l-.505-.259-.089.745c-.732-.02-.44-.345-.656-.535h-.354l.2.558-.2.049a1.893 1.893 0 0 1-.328-.23c-.128-.144-.135-.328-.328-.443a3.8 3.8 0 0 0-.85-.161c-.03-.075-.056-.144-.089-.22h-1.3l-.23.312-.63-.154-.564.272c-.115-.18-.226-.351-.368-.564L16.2 22.23l-.715-.328-.459.177a4.619 4.619 0 0 1-.292-.135l-.528.266-.456-.138-.75.214-.459-.538-.256.118.443-.253-1.142.171-.6-.476-.345.377-.584-.164-.22.276-.945-.463-.863.18.469-.387 4.824-.377c.1-.161.207-.328.328-.548a8.426 8.426 0 0 0-2.953-.187l-.63.305c-.066-.1-.125-.184-.249-.361l-.364.361a4.151 4.151 0 0 0-2.281-.026l-.273-.128c-.384-.1-.555.312-1.027.089a3.672 3.672 0 0 0-.811.053H3.771l.361-.394c.712-.158 1.483.089 2.11-.158a8.138 8.138 0 0 0 1.641.082 5.539 5.539 0 0 0 2.064-.108 6.235 6.235 0 0 1 1.431-.016 3.429 3.429 0 0 0 1.7-.243c-.217-.285-1.359.069-1.414-.525l.87.158a7.876 7.876 0 0 1 .935-.125 6.608 6.608 0 0 0 1.112.049 1.313 1.313 0 0 1 1.021.085l.564-.272.627.161.253-.354 1.788.125.656-.144c-.026-.033-.046-.092-.082-.1-.5-.033-.984-.328-1.5 0a8.1 8.1 0 0 1-1.378-.1 7.157 7.157 0 0 0-2.156-.21 10.931 10.931 0 0 1-1.4-.118l-.518.246h-1.249c-.046-.062-.105-.151-.223-.328-.161.158-.282.282-.518.512l-.269-.4-1.106-.19-.423.555h-.69v-.328L7.269 18l.328-.3-.3-.154c-.033 0-.082-.053-.1-.049l-1.014.226.039.19.755-.141.1.282h-1.4c-.062-.085-.121-.174-.187-.269l-.627.3-.557-.285-.43.391-.686-.614.709-.161-.282-.328.383-.21.279.305c.105-.108.158-.226.3-.289a3.682 3.682 0 0 1 .623-.141l.328.158.594-.19.774.2.23-.328H5.376v-.614l.328.154 1.72-.154.5.256v.518l-.528.007v.5c.233-.223.387-.368.538-.518h.656l-.363-.442.866-.364c-.282-.092-.525-.158-.735-.243s-.391-.194-.656-.328l-.125.285H6.225v-.335l1.546-.207.3.141a1.089 1.089 0 0 1 1.093-.03 1.28 1.28 0 0 1 1.007 0c.407-.328.715.141 1.152 0l.2-.3.328.328 2.005-.285.305.141.374-.171.555.177 1.345-.24-.623-.433.689-.259-1.421-.263-.391.161-.479-.276.555-.358.568.138 1.408-.3c-.807-.246-1.674.079-2.3-.249-.719.243-.328.623-.463.968l-1.278.242-.446-.328-.784.226-.082-.427 1.345-.256.4.463.574-.568-.466-.151-.2.105-.446-.144-.548.158-2.517-.447-.253.129-.617-.154-.515.358a2.779 2.779 0 0 0-1.8-.144c-.61.131-1-.213-1.536.02l-.735-.738c1.969-.249 3.938-.263 6.009-.459 1.185.328 2.471-.056 3.892-.141a2.914 2.914 0 0 0 .5.092 19.581 19.581 0 0 0 3.2-.164 1.6 1.6 0 0 0 .3-.1c.492.328.929 0 1.378-.039l.387.184.1-.269c-.751-.167-1.595.121-2.231-.2a7.991 7.991 0 0 1-2.648.105l-.194-.292a1.083 1.083 0 0 1-1.27.446l.656-.525-.984.108v-.538a5.536 5.536 0 0 1 2.73-.082 3.938 3.938 0 0 0 1.053-.049c.223-.016.436-.056.656-.082l.617.476.489-.328-.043.02.2.121a.8.8 0 0 0 .092-.046 2.2 2.2 0 0 0-.249-.1l.358-.272a7.922 7.922 0 0 1 2.832.282 13.5 13.5 0 0 1 3.282-.456 11.1 11.1 0 0 0 2.947-.134 4.282 4.282 0 0 0 1.756.128 2.07 2.07 0 0 0 1.194-.138c.348-.217.623.246 1.112.046a6.35 6.35 0 0 1 1.129.092 11.275 11.275 0 0 0 1.214-.118l.358.131c.328.049.719-.351 1.129-.02.3-.272.879-.059 1.313-.2.292-.1.8.144 1.135-.112.135.046.236.092.351.125a.758.758 0 0 0 .246.046c.328-.161.633 0 .922 0a8.069 8.069 0 0 0 1.267-.249.781.781 0 0 0 .9-.056 3.114 3.114 0 0 0 2.133 0l.538.18.656-.18.5.19c.026-.151.046-.285.079-.5l-.866.135a7.19 7.19 0 0 0-2.437 0 1.263 1.263 0 0 1-.374.066c-1.135-.279-2.264.154-3.393 0-.3-.039-.6-.1-.965-.151l-.735.328-.5-.154-.246.105-1.706-.164-.543.27c-.368-.036-.712-.056-1.044-.105a4.555 4.555 0 0 0-.925-.02c-1.2.062-2.415.03-3.61.016-.108 0-.213-.089-.328-.138l-.351.167-.503-.12a18.282 18.282 0 0 1-3.134.1c-.3 0-.614-.043-1.073-.075l-.269.19a17.572 17.572 0 0 0-3.1.18c-.371-.328-.866-.023-1.313-.066a20.077 20.077 0 0 0-1.539-.072 2.953 2.953 0 0 0-.958.043c-.4.23-.538-.194-.834-.046l-.289.141-1.68-.223.466-.374h2.766l.108-.259c.328.043.709.269.942.023l.866.112.479-.417 1.828-.148a5.063 5.063 0 0 0 1.887.056 18.741 18.741 0 0 1 3.541-.039 9.674 9.674 0 0 0 1.7-.151l.328.171 1.887.082c.167-.105.328-.223.518-.328l.568.292c.3-.02.627-.3.912.082l.551-.391.656.141a1.047 1.047 0 0 1 .922.02c.4-.328.719.1 1.126.023l.41-.226a18.761 18.761 0 0 0 4.175-.041l.446.125.689-.174.361.167a1.355 1.355 0 0 1 .207-.105 1.034 1.034 0 0 1 .246-.039c.361.328 1.089-.285 1.313.187l.738-.213.4.164a1.135 1.135 0 0 1 .328-.135 20.591 20.591 0 0 0 3.486-.128c.486.243 1.126.036 1.641.138.453.092.765-.246 1.247-.03.217.1.689-.194 1.04.02a56.9 56.9 0 0 1 6.272-.154 3.459 3.459 0 0 0 .623-.141 5.132 5.132 0 0 0 .876.135 7.466 7.466 0 0 0 1.04-.138c.308-.049.564.21.945 0 .171-.089.535.217.916 0 .243-.141.561.144.955.056a6.048 6.048 0 0 1 1.07-.062h1.158a1.969 1.969 0 0 1 .482.128l.328-.154a3.15 3.15 0 0 0 2.077 0l.656.18.42-.158.217.1 2.2-.154.656.328.981-.268.591.164c.085-.128.144-.213.243-.354l.784.171.564-.171.43.148c.279-.125.584-.263.843.026l.387-.177.7.18.492-.171 1.355.361c.066-.138.138-.3.217-.466l.541.21 2.09-.092c.305.289.984-.256 1.247.2.479-.3 1.152 0 1.66-.2a6.3 6.3 0 0 0 2.665 0 2.1 2.1 0 0 1 .574 0 10.049 10.049 0 0 0 2.671.016 6.852 6.852 0 0 1 .984.062 5.145 5.145 0 0 0 .781 0c.121 0 .285-.112.328-.092.656.19 1.313-.138 1.926 0a1.818 1.818 0 0 1 .328.135 12.1 12.1 0 0 1 3.938 0l.551-.266 1.313.656-.328.161-.765-.328-.413.328h-2.116l-.181-.261h-.358l-.167.246a1.762 1.762 0 0 1-.249.049 12.741 12.741 0 0 0-2.789.141 2.369 2.369 0 0 1-.574-.089l-1.208.217-.3-.213-2.871.2-.328-.105a4.118 4.118 0 0 1-2.1.1c-.354.046-.607.089-.866.112a4.488 4.488 0 0 0-1.608.138c-.423-.253-.984-.1-1.49-.128a1.07 1.07 0 0 0-.374.144c-.266.053-.532.1-.958.177l.41-.328c-.87 0-1.618-.016-2.373.026l.961.689 1.969-.328v-.231h.473l.19.289.473-.167.737.288 1.4-.266.443.177.627-.19.387.292 2.625-.243a3.38 3.38 0 0 0 2.018-.046c.3.328.863.02 1.355.135a8.26 8.26 0 0 0 1.588-.112 3.687 3.687 0 0 1 1.664.164l.423-.164.19.1.952-.125.686.725.984-.676h1.884l-.863.3.1.1.758-.082.407.138.656-.305.656.368.16-.532h.807a1.706 1.706 0 0 0 .016.289l-.043-.023-.236.105.092.046a.984.984 0 0 0 .187-.128l.824.3 1.821-.085.712-.492.187.591h1.47l-.407.22c-.413.023-.919-.3-1.247.062l-.492-.19a56.45 56.45 0 0 0-.748.528l-.673-.2a.984.984 0 0 1-.328.092c-.446-.043-.886-.112-1.473-.19l-.423.305-.673-.2-.568.161-1.385-.305-.545.282a12.975 12.975 0 0 1-1.431-.112 3.032 3.032 0 0 0-1.949.2l-2.136-.3-.236.328a12.286 12.286 0 0 1-3.093-.284 13.556 13.556 0 0 1-2.8.148l-.187.282-.207-.075c-.5.026-.935.043-1.365.082a1.03 1.03 0 0 0-.364.151l-.039-.023-.24.105.092.046a1.169 1.169 0 0 0 .187-.128c.328.043.676.112 1.027.138s.768 0 1 0a3.965 3.965 0 0 0 .607-.151c.148-.072.2-.2.358-.259a2.136 2.136 0 0 1 .548 0l-.479.279a5.3 5.3 0 0 0 1.765-.141 1.615 1.615 0 0 0 1.145 0l.512.263a4.8 4.8 0 0 0 2.346-.272 5.677 5.677 0 0 0 1.923.138 6.158 6.158 0 0 1 1.9.135 2.589 2.589 0 0 1 1.831.026l.63-.18.446.174 1.464-.259.607.279.676-.194.417.164.351-.164.535.138a.505.505 0 0 1 .22-.085c.345.026.683.112 1.024.108s.607-.141.893-.128c.486.026.958.121 1.47.19l-.784.44a10.219 10.219 0 0 0-2.809-.187.912.912 0 0 0-.328.135c-.4-.263-.984-.092-1.444-.148l-.5.256-2.369-.259-.7.328-.719-.141c-.2-.036-.374.164-.656 0a2.658 2.658 0 0 0-.827-.03 2.205 2.205 0 0 0-.676.036c-.246.207-.453-.085-.637 0a.656.656 0 0 1-.61.049 1.424 1.424 0 0 0-.633-.089c-.732.2-1.6-.272-2.189.131l-1.172-.125-.089.128c.256.062.505.138.778.184s.607.066 1.083.118a3.42 3.42 0 0 1 2.12.069l.328.538h1.194l1.72.656v.348a5.955 5.955 0 0 1-1.378.112 3.741 3.741 0 0 0-1.5-.039c-.463.158-.984-.2-1.313.138l-.387-.282-1.864.259-.62-.2.463.512h4.181a1.969 1.969 0 0 0 .492-.1 1.26 1.26 0 0 1 1.103.176l-.807.384H97.83c.223.115.328.226.459.226h2.235a3.748 3.748 0 0 1 .765-.056c.482.23 1 .053 1.532.141-.3-.361-.466-.656.263-.939a2.471 2.471 0 0 0 1.93-.043l.463.371-1.411.2v.371a5.43 5.43 0 0 0 1.89-.161 7.357 7.357 0 0 0 2.983.033l2.327.328v.174a1.243 1.243 0 0 1-.266.049c-.656 0-1.313-.328-2-.075-.584.22-1.313-.092-1.89.194a1.555 1.555 0 0 1-.814.023 3.335 3.335 0 0 0-2.071.085l.863.194 1.6-.144 1.24.42-.83.522-.42-.18-.594.194-.627-.18-.292.105a3.183 3.183 0 0 0-.794-.02c-.328.158-.364-.079-.548-.066-.263.02-.518.053-.879.089l-.82-.161.459.486c1.562-.364 3.032.154 4.555.02l.515.443.292-.128.23.108a1.349 1.349 0 0 1 1.365.128l-.515.089v.463l.584-.151.656.226c-.207.118-.354.207-.541.328h-3.314c.532.328.532.328 1.244.154l.354.167.551-.131a1.06 1.06 0 0 0 .328.105c.771.049 1.546.082 2.32.115.062 0 .135-.066.217-.108l.4.194-.3.276.473.272.328-.463a1.131 1.131 0 0 1 1.07.292h1.467l.436-.226.092.226a6.038 6.038 0 0 1 .627.026 2.353 2.353 0 0 1 .45.158l.62-.164.22.151zm-33.944-8.165l-.056-.03-.236.105.092.046c.066-.039.135-.082.141-.148l.056.03.236-.105-.092-.046c-.066.041-.135.066-.141.148zm-68.88 4.88l.059.03.236-.1-.092-.049c-.069.043-.135.082-.141.148l-.056-.026-.24.1.092.049c.07-.044.136-.083.142-.152zM95.585 39.36l.056-.026-.2-.125-.1.066a.712.712 0 0 0 .289.072l-.056.03.2.121.092-.049a.712.712 0 0 0-.276-.089zm-6.674-27.808l.056-.03-.2-.121-.092.049a6.5 6.5 0 0 0 .984.263c-.21-.118-.269-.174-.312-.171a4.046 4.046 0 0 0-.407.066c.16.023.345.049-.029-.056zm-60.636-.328l-.056.03.2.121.092-.046a1.142 1.142 0 0 0-.489-.085h.253l-.112-.289h-.187c.016.1.03.194.3.269zm-4.119 11.643l.056-.03-.2-.121-.092.049a1.139 1.139 0 0 0 .476.082h-.246c.039.148.075.292.112.44.158-.066.207-.131.207-.194s-.047-.174-.313-.226zm7.892 12.142l-.056.03.2.121.092-.049a.985.985 0 0 0-.266-.082l.144-.079-.683-.226a2.143 2.143 0 0 1-.036.282 5.274 5.274 0 0 0 .6 0zm12.6 4.922h-.174c.039.148.075.3.118.466l.473-.062a1.792 1.792 0 0 0-.545-.4 2.385 2.385 0 0 0-.046-.305l-.548.03a1.231 1.231 0 0 0 .043.253 6.356 6.356 0 0 0 .68.018zM13.412 19.287l.056-.03-.2-.121-.092.046a.328.328 0 0 0 .328 0v.584l.9-.285a3.2 3.2 0 0 0-.991-.194zm32.865 21.382l-.056.03.2.121.089-.049c-.079-.033-.158-.069-.984.21l.729-.371-.722-.308a1.162 1.162 0 0 1-.164.308 1.312 1.312 0 0 1-.259.158c.199.101.297.147 1.167-.099zm-.027-1.349l-1.641.272.889.489.407-.154.758.194.328-.368.558.164.755-.226c-.226-.413-.561-.059-.709-.072l-.879-.236.86-.558-1.336.276zm5.927-29.862l.853.24L55 9.37c-.049-.085-.092-.151-.105-.174h-6.256c-.069 0-.138.066-.2.1l-.272-.128-2 .2.515.42 2.824-.288.282.2 1.569-.207.5.121zm-1.467 30.03l1.155.584.512-.151.436.154c.249-.272.62-.532.328-.84l-.623-.144zm4.62-30.3l.564.374 1.05-.154.791-.407.656.033c.049.164.085.3.125.427l.3.092.328-.41.466.24.83-.171a18.757 18.757 0 0 0-1.913-.328 16.707 16.707 0 0 0-3.2.305zM34.611 38.841l-1.254.148-.725-.112v.328L37.364 39l-.463-.548-.351-.089-.272.417-.328-.164-.774.371-.436-.479zM70.4 9.019v.505l.984-.328.377.144.614-.184.6.171.453-.138c.177.1.043.387.594.249l.249-.308.656.174c.164-.285-.207-.351-.381-.407-.545.049-.939.1-1.336.118a5.309 5.309 0 0 1-1.418 0c-.536-.197-.892.092-1.392.004zM38.191 38.726h3.987v-.282a5.8 5.8 0 0 0-1.884.148 2.89 2.89 0 0 0-1.9 0l-.814-.171v.715zM66.33 9.252a4.694 4.694 0 0 0 1.9.512l-.3-.725c-.466-.18-.774.174-1.293 0a6.511 6.511 0 0 0-1.569-.023l.886.387zM44.892 38.129c-.328.066-.564.128-.82.161s-.6.059-.984.1l-.538-.141c-.03.141-.046.223-.069.348h1.194a3.787 3.787 0 0 1 .807-.062c.456.22.656-.138.984-.082l.328.108.532-.128.167.062.692-.1-.492-.233-.371.154-.715-.184-.358.158zm-24.664-3.121c.656.03 1.116.436 1.969.259l-.5-.587c-.771.266-1.053-.558-1.916-.158zM10.8 16.5l.482.246.45-.305h1.26c.043 0 .079-.062.141-.112l-1.116-.085a.564.564 0 0 0 .023-.069l.742-.053.328-.4h-1.349l-.466.7zm100.95 9.316l.548-.328-.587-.256c-.23.377-.722-.062-1.112.108-.328.148-1.06-.079-1.29.276l1.552.2.5-.167zM60.227 9.032l.692.436c.3-.358.925.118 1.273-.151a6.107 6.107 0 0 1 .715.158c.154-.148.3-.279.43-.413 0 0-.062-.033-.053-.03zm18.114-.023c-.656 0-1.139.016-1.6 0s-.935-.082-1.608-.141l.617.479.6-.158.328.135.7-.18.41.148zm13.5 2.8l1.178-.177-.1-.243-.473.171-.623-.177-.532.164-.837-.184c-.033.128-.046.2-.062.263zm3.938 0l-.4.423a2.164 2.164 0 0 0 1.378.135v-.325zm-49.991 25.71l-1.047-.266-.561.184-.551-.194-.328.551a3.99 3.99 0 0 1 .922-.22 4.972 4.972 0 0 0 1.565-.055zm33.1-28.106l1.07-.2-.075-.364c-.561 0-1.119-.085-1.332.22zm-14.462-.1l.433.207c-.033-.312-.053-.492-.069-.656-.614-.036-1.024.026-1.109.328-.023.085.039.174.075.328zM17.1 14.991l.719-.18c.263.02.276.2.528.1a.512.512 0 0 1 .033-.2c-.574-.046-1.06-.374-1.825-.085zm76.752-2.77l-1.178-.4-.328.584H93.5zm-73.48 2.137l-1.526.427a1.561 1.561 0 0 0 1.116.023l.41.19zm73.211 1.69l-.561.512.459.44.148-.5.8-.233zM58.471 40.036c.351-.194.8-.053 1.135-.105.138-.02.223-.135.423-.263h-1.558zM23.145 14.568c-.755-.115-1.132-.03-1.342.328l.492.177zm-1.641-1.7l-1.411.217.092.24 1.408-.217zm-5.611 2.737a7.567 7.567 0 0 0-.41.7c-.023.046.1.108.19.213l.591-.236zM114.1 27.028c-.233.046-.44.092-.656.121s-.433.039-.9.079l1.611.167.328-.174zM18.416 15.477l-.171-.075a1.66 1.66 0 0 1-.328.148 4.476 4.476 0 0 1-.492.072c.089.158.148.269.217.374a2.136 2.136 0 0 0 .272 0zm-.8-2.412l-.738.161a6.186 6.186 0 0 0 1.874.02zM40 37.913l1.076-.3-1.592-.171zm42.808.781a3.8 3.8 0 0 0-1.382-.039l.423.276zm24.133-3.685a.906.906 0 0 0 0-.354c-.026-.059-.18-.108-.285-.158a2.065 2.065 0 0 0-.233-.056v.568zm-83.529-.263l-.184.125.906.328v-.453zm5.388-1.67l1.106.259-.6-.568zm71.462-17.783v.072H102v-.072zm-66.826-2.625l.039.177h.906l-.112-.282zm-4.548 0a.6.6 0 0 0-.745.062l.253.351zm-4.076-2.1v.532l.656-.049zM29.183 32.6l.436-.459-.436-.3zm83.4-2.435h-1.076l.253.328zM104.9 18.374a4.345 4.345 0 0 1 .532-.141c.2-.03.42-.026.63-.036v-.079h-1.152zm-92.622-.729l.617-.308c-.395.01-.579.155-.612.309zm95.454 17.425v-.689l-.466.45zm-77.85-22.15c-.328-.125-.328-.328-.774-.285.023.131.046.263.079.436zm-9.982-.853v.551l.656-.131zm-2.445 2.369V13.9l-.656.069zM33.81 34.815c-.328.062-.909.125-.44.391zm.046 3.938l.233-.082a1.2 1.2 0 0 0-.184-.23 1.772 1.772 0 0 0-.3-.151l-.18.079zm38.8 0c.039.148.079.279.141.5l.407-.515zM101.9 36.5l-.19.1c.023.066.049.131.085.23l.725-.069zm-28.623 3.007c-.026.328.213.328.6.22l-.082-.22zM42.231 37.67h.879l-.125-.328zM38.06 38v-.456l-.617.066zM10.9 17.2v.45l.617-.062zm9.48-1.611h-.88c.039.108.066.174.125.328zm.535.345v-.545l-.479.039zm93.593 7.915c-.043-.148-.079-.279-.115-.407-.164.072-.151.144-.207.2a2.117 2.117 0 0 1-.4.223zM24.13 12.625l.151.571.482-.246zm67.77-.092c-.079-.272-.115-.4-.154-.551l-.492.22zM22.656 30.989l-1.086.082.427.253zm5.451 3.058c.328-.43-.046-.354-.328-.328zm.581 1.178c.328-.4 0-.348-.387-.328zm4.922-1.04c-.092.223-.092.223.614.194zm-12.549-19.6v.243l.742-.066zm54.474-3.938c.046.131.069.2.053.144l.656-.144zm9.116.276l-.187-.305-.128.049v.256zm-64.318.469l.187.322.128-.046v-.256zm88.215 14.239H109l-.069-.2zm-80.517 6.647v.24l.742-.066zm-1.989-.026c-.092.223-.092.223.614.194zm-7.065-.7l.6-.158-.1-.072h-.5zm28.349 6.819c.774.167.683 0 .617-.2zm-12.266-.63h-.453l.069.2zm56.413-.22l-.729.377.824-.089zm-28.91 2.094h.256l-.108-.391h-.148zm35.352-.215l-.6.144.1.069h.5zm-31.415.107l.187.3.125-.046v-.256zm-34.893-1.04l.236.3.128-.043v-.256zm81.382-7.324v-.128l-.486.053.02.075zm-87.064 7.718v-.072h-.581v.072zm.83-.243h-.246l.105.249h.141zm12.194-.794V37.7l-.486.053.02.075zm-2.031-.249l-.249.016.112.243h.138zm4.453 0l.03.128.473-.059-.023-.069zm7.738.715a.46.46 0 0 0-.033-.128l-.473.056a.613.613 0 0 1 .023.072zM28.537 31.5v.075h.581V31.5zm-8.493-.036H19.9v.3h.144zm7.259.742h-.144v.3h.141zm84.037-.269l.033.128.473-.059a.563.563 0 0 1-.023-.069zm-.381.1a.612.612 0 0 0-.033-.128l-.473.059a.283.283 0 0 0 .023.069zm-85.845-9.049h.144v-.3h-.144zm74.491 16.359h-.148v.3h.148zm-76.634-28.53h-.253c.039.079.079.161.115.243h.138zm63.642.089v-.076h-.581v.075zm13.648 28.477v.075h.581v-.075zM30.522 12.6l-.253.016c.039.079.075.161.115.243h.138zm.679.249l.249-.016-.1-.24h-.138zM26.279 13l.249-.016c-.036-.082-.075-.161-.112-.243h-.138zm1.352-.253h-.253l.115.243h.138zM22.4 12.9h-.249c.036.082.075.161.112.243h.137zm74.317 26.447h-.147v.3h.148zM93.354 9.878l.253-.016-.115-.243h-.138zM84 10.4v.075h.581V10.4zm-68.166 7.679h.144v-.3h-.144zm-4.089.128H12l-.115-.263h-.138zM18.42 19l.03.128.476-.056L18.9 19zm4.942-5.848l.249-.016-.112-.243h-.138zM25.59 13l-.03-.128-.476.056.023.072zm-6.127.023h-.144v.3h.144zm12.214 1.221h-.249l.105.249h.144zm60.981.391a.46.46 0 0 0-.033-.128l-.473.059.023.069zm-71.088.955v.075h.591v-.075zm-3.777.6v.072h.581v-.072zm83.1 20.608h.249l-.112-.243h-.138zm-70.079-1.79l-.03-.128-.473.056.023.072zm38.765 4.785h.1v-.151h-.1zm-44.524-4.811v-.049h-.292v.049zm82.465-9.418v.049h.289v-.049zM18.666 26.9v.049h.289V26.9zm57.785 11.751v.049h.289v-.049zm-47.911 0v.049h.292v-.049zm81.012-6.691v.049h.292v-.049zm1.539-1.687h.1v-.148h-.1zm3.872-.148h-.1v.148h.1zm-89.915 6.147v.049h.289v-.049zm6.973-4.164v.049h.292v-.049zm-.673-.053h-.1v.145h.1zm-.683 6.563h.1v-.148h-.1zm69.3-1.884v.049h.292v-.049zM32.8 38.454h-.1v.164h.1zm-6.773-6.842h.1v-.148h-.1zm13.257.049v.066h.292v-.066zm47.235 6.793h-.1v.164h.1zM36.38 34.09v-.05h-.292v.049zm62.349 5.4h-.108v.148h.1zm-49.551.1v-.049h-.289v.059zm35.136-.3v-.053h-.292v.063zM30.28 32.3v-.049h-.29v.049zm53.62 6.6h-.1v.148h.1zm13.746-24.283v-.049h-.289v.049zm-2.625-.049v.049h.318v-.049zm-69.772-.056h-.1v.151h.1zm3.475-.148h-.1v.148h.1zm3.776-1.641h-.1v.148h.1zm-22.548-.1v.066h.292v-.066zm84.992-.5h-.1v.148h.1zm-8.808-.446h.1v-.148h-.1zM13.149 21.7v.049h.289V21.7zm95.24-1.933v.049h.292v-.049zm-89.241-1.823h-.1v.148h.1zm-8.709-.459h-.092v.148h.1zM22.732 15.6v.046h.289V15.6zm47.041-6.234v.046h.3v-.049zm-.984-.049h-.1v.148h.1zm41.521 14.275h-.1v.148h.1z" class="cls-1" data-name="Path 465" transform="translate(-2.143 -5.143)"/>
            <path id="Path_466" d="M83.23 4.774V5.2h-.518l-.131-.456-.545.443h-1.352l-.1-.528H79.5v.22l.535.1V5.3l-1.089.19-1.506-.18a.919.919 0 0 0-.154-.443c.171.217.171.217.755.056l.807.2-.614-.466c-.446 0-.761 0-.948.2a.922.922 0 0 1-.535.63c-.285-.092-.6-.243-.879 0l-.545-.161-.413.2a5.678 5.678 0 0 0-2.014-.167h-1.972l-.712-.538v.538a15.749 15.749 0 0 1-2.862-.108l-.522.253h-.942l-.5-.41c-.03 0-.144.033-.148.056-.066.492-1.014.312-1.49.5a1.943 1.943 0 0 1-.955 0c-.374-.312-.965.141-1.277-.135a14.714 14.714 0 0 1-3.072.154 6.967 6.967 0 0 0-.843.148l-.427-.171-.518.118a1.044 1.044 0 0 0-.922.016 1.083 1.083 0 0 0-1.093.03c-.308-.272-.607.023-.919 0a8.88 8.88 0 0 0-1.165.121l-.361-.796c.151-.374.919-.151 1.385-.266s.9-.184 1.313-.266l.3.154.719-.328.489.18c.049-.026.108-.089.184-.1.886-.069 1.785-.138 2.655-.187a3.314 3.314 0 0 1 1.756.269l1.172-.407a.8.8 0 0 0 .883 0 4.368 4.368 0 0 0 1.788.3c.443 0 .893.059 1.47.1l.233-.279.614.138.456-.161.61.3.916-.141.679.5c0-.476.548-.732 1.368-.856a2.914 2.914 0 0 0 .8.079c.558-.285 1.027-.039 1.49.033l.4-.2A2.385 2.385 0 0 0 75.63 4l1.217.328L78.059 4l.42.161a8.122 8.122 0 0 1 1.063-.135h6.465l.436.223-1.313.873-.578-.18-.259.269h-.6c-.4-.069.177-.417-.446-.433l.043-.023-.2-.121-.092.049a2.2 2.2 0 0 0 .236.092zm-25.83.539V5.25h-.58v.062zm-3.826.062h-.249c.036.082.075.164.112.243h.138z" class="cls-1" data-name="Path 466" transform="translate(-35.07 -2.684)"/>
            <path id="Path_467" d="M214.2 3.263c.128 0 .381-.049.683-.089-.151-.069-.053-.023.049.02l.233-.108 2.225.167c-.194.328-.581.712-.023 1.129l-.771-.1a.929.929 0 0 1-.784-.023l-.45.161-.555-.2-.574.18-.384-.089-1.506.108-.657-.419 1.424-.1-.751-.2-.958.131.23.656a2.179 2.179 0 0 1-1.24-.174l.561-.1v-.504c.738-.053 1.037-.3.952-.709l2.254.4c-.033-.039-.066-.079.026-.138a2 2 0 0 1-.3.656l1.953.089.735-.522-1.985.171a1.162 1.162 0 0 0-.391-.394z" class="cls-1" data-name="Path 467" transform="translate(-141.35 -2.012)"/>
            <path id="Path_468" d="M179.991 4.277v.384l-1.408.154-.407-.118-.364.174c-.3-.23-.771-.118-1.24-.158V4.1l.745.144.079-.187a1.017 1.017 0 0 0-.24-.079 8.242 8.242 0 0 1-2.336-.154c-.351.174-.709 0-1.057 0a10.62 10.62 0 0 0-1.273.151c-.02-.144-.039-.276-.059-.43l3.577-.282a21.831 21.831 0 0 0 3.314.125l.656.364-.361.187H178.1l-.194.259 1.447.151z" class="cls-1" data-name="Path 468" transform="translate(-115.846 -2.187)"/>
            <path id="Path_469" d="M251.951 3.99c-.039-.043-.079-.082-.112-.125l-.1-.148H247.8l-.811.886-.555-.916-.774-.226.456-.364a15.336 15.336 0 0 1 2.5.138c.5.128 1.1-.213 1.746-.131a6.246 6.246 0 0 0 1.736.125 16.5 16.5 0 0 1 2.422-.125l.765.394-.387.22c-1.736-.28-2.133-.227-2.947.272z" class="cls-1" data-name="Path 469" transform="translate(-165.045 -2.073)"/>
            <path id="Path_470" d="M21.595 16.924a2.254 2.254 0 0 1-.725.423c-.6.118-1.257.417-1.729.053l-3.38.292c.433-.246.627-.453.827-.456.758 0 .984-.194.984-.545 0-.069.249-.138.387-.207a1.831 1.831 0 0 0 .545.263c-.2.144-.427.279-.656.413a1.224 1.224 0 0 0 .135.069c.505-.043.784-.158.515-.482-.1-.046-.1-.118-.1-.213l1.702-.194v.545l-.558.3a1.641 1.641 0 0 0 .4.049c.374-.19.719-.394 1.109-.614zm-2.517.3h.1v-.148h-.1z" class="cls-1" data-name="Path 470" transform="translate(-10.588 -10.975)"/>
            <path id="Path_471" d="M110.621 106.132l1.254.154.505-.246c1.04.269 1.04.269 1.575.8l-.633.266.112.089.656-.141.236.253a14.591 14.591 0 0 1-3.452.348l-.4-.207c.2-.049.541-.092.555-.148a1.4 1.4 0 0 0-.079-.656 2.954 2.954 0 0 0-.329-.512zm1.608.656l.144-.079-.683-.226a1.716 1.716 0 0 1-.039.282 5.906 5.906 0 0 0 1.388-.144c-.837.174-.837.174-.532.387l-.269.154.41.207c.6-.19.479-.459-.42-.584z" class="cls-1" data-name="Path 471" transform="translate(-74.219 -71.239)"/>
            <path id="Path_472" d="M323.992 97.224c1.5-.075 1.6-.023 1.641 0l-.22.873-.374-.1-.617.266a8.913 8.913 0 0 1-2.432-.656 2.78 2.78 0 0 1 .036-.328c.282-.062.2.128.564.059.883-.161 1.808-.348 1.4-.089-1.408.135-1.427.144-1.447.154l.2.121.092-.046c-.074-.07-.156-.093 1.157-.254z" class="cls-1" data-name="Path 472" transform="translate(-216.327 -65.245)"/>
            <path id="Path_473" d="M235.993 4l.7.128c-.023.079-.053.161-.1.3l-.656-.19-.5.256-.2-.053c-.551-.151-.115-.459-.44-.692l-.44.1-1.743-.125 1.313-.535h2.33l.476.236z" class="cls-1" data-name="Path 473" transform="translate(-156.285 -2.14)"/>
            <path id="Path_474" d="M300.164 22.767h-.433l-.482.427-1.362-.249v-.525l-1.477-.285.984-.194 1.477.144c.184.298 1.116.315 1.293.682z" class="cls-1" data-name="Path 474" transform="translate(-199.142 -14.737)"/>
            <path id="Path_475" d="M330.517 91.324l.236-.328 1.329.21.656.391c-.374.328-.574.059-.82 0a11.328 11.328 0 0 1-2.658.154v-.394l.939-.417z" class="cls-1" data-name="Path 475" transform="translate(-221.212 -61.094)"/>
            <path id="Path_476" d="M45.7 7.32l-.492.308-.089-.036c-.141.194-.279.384-.453.617l-.374-.144-.587.151-.482-.673.377-.223z" class="cls-1" data-name="Path 476" transform="translate(-29.037 -4.915)"/>
            <path id="Path_477" d="M162 5.938c1.9-.164 3.282.384 4.857.512h-2.888z" class="cls-1" data-name="Path 477" transform="translate(-108.839 -3.966)"/>
            <path id="Path_478" d="M349.86 54.93l-.558.328-.561-.161-.358.148-.61-.18-.63.18-.492-.194-.581.4v-.614c.417-.233.837.21 1.221-.046a1.552 1.552 0 0 0 1.106.052 6.987 6.987 0 0 1 1.345-.079z" class="cls-1" data-name="Path 478" transform="translate(-232.505 -36.79)"/>
            <path id="Path_479" d="M277.94 3.63l.587-.4h2.432c.1.108.23.243.384.4z" class="cls-1" data-name="Path 479" transform="translate(-186.733 -2.167)"/>
            <path id="Path_480" d="M161.776 3.677a3.751 3.751 0 0 1-2.268.413l-.7-.328-.489.2-.167-.207 1.109-.194.909.246.417-.351z" class="cls-1" data-name="Path 480" transform="translate(-106.252 -2.321)"/>
            <path id="Path_481" d="M315.872 26.866c-.02-.223-.039-.407-.062-.656l.4.141a4.807 4.807 0 0 1 1.224-.072c.4.177.656-.19 1.014.049l-.436.394-.63-.154-.656.3-.482-.167z" class="cls-1" data-name="Path 481" transform="translate(-212.175 -17.606)"/>
            <path id="Path_482" d="M102.546 106.18c.144.328-.118.505-.656.6l-.328-.328a.853.853 0 0 1-1.011-.056l-.551.512v-.581h1.313l.226-.328z" class="cls-1" data-name="Path 482" transform="translate(-67.185 -71.212)"/>
            <path id="Path_483" d="M196.47 6.35l.673-.423.387.177.538-.154.21.108.843-.328c.387.253.243.427-.18.61z" class="cls-1" data-name="Path 483" transform="translate(-131.997 -3.846)"/>
            <path id="Path_484" d="M347.625 46.149A5.234 5.234 0 0 1 345 46.1c.45-.328 1.2-.263 1.729-.413z" class="cls-1" data-name="Path 484" transform="translate(-231.787 -30.693)"/>
            <path id="Path_485" d="M158.509 5.943l-.788.4-.3-.141-.532.266a1.841 1.841 0 0 1-.194-.043c-.509-.18-.226-.427-.348-.735l.807.18.285-.125z" class="cls-1" data-name="Path 485" transform="translate(-105.043 -3.82)"/>
            <path id="Path_486" d="M48.6 106.53l-.328.158a1.523 1.523 0 0 1-.725-.259 8.719 8.719 0 0 1 2.4-.328c-.066.328-.551.427-.86.627z" class="cls-1" data-name="Path 486" transform="translate(-31.946 -71.279)"/>
            <path id="Path_487" d="M5.3 19.521v-.194l.929-.158 2.208.148a8.8 8.8 0 0 1-3.137.204z" class="cls-1" data-name="Path 487" transform="translate(-3.561 -12.876)"/>
            <path id="Path_488" d="M313.865 103.463v.3l-.889.24-.423-.144-.358.121-.144-.075.771-.706zm-.774.23h.1v-.148h-.1z" class="cls-1" data-name="Path 488" transform="translate(-209.649 -69.331)"/>
            <path id="Path_489" d="M348.113 76.776v.345l-1.313.039.125-.085-.755-.167.656-.358z" class="cls-1" data-name="Path 489" transform="translate(-232.573 -51.427)"/>
            <path id="Path_490" d="M353.408 46.2a4.663 4.663 0 0 1 1.943.207l-.4.213h-1.89z" class="cls-1" data-name="Path 490" transform="translate(-237.202 -31.017)"/>
            <path id="Path_491" d="M38.328 92.8l1.2.427-1.047.574-.481-.693z" class="cls-1" data-name="Path 491" transform="translate(-25.53 -62.344)"/>
            <path id="Path_492" d="M300 26.846v-.426l1.526-.23c.4.292.115.466-.351.656l-.482-.128z" class="cls-1" data-name="Path 492" transform="translate(-201.554 -17.592)"/>
            <path id="Path_493" d="M310.29 23a1.536 1.536 0 0 0 1.28.1l.712.184-.673.374-.574-.164c-.062.085-.128.167-.23.3z" class="cls-1" data-name="Path 493" transform="translate(-208.467 -15.449)"/>
            <path id="Path_494" d="M22.71 13.478l.459-.328H24.7l.463.305a1.8 1.8 0 0 1-.223.121 5.4 5.4 0 0 0-2.23-.098z" class="cls-1" data-name="Path 494" transform="translate(-15.258 -8.832)"/>
            <path id="Path_495" d="M94.537 107.06l.686.148v.656l-.633-.5-.689.377v-.5z" class="cls-1" data-name="Path 495" transform="translate(-63.086 -71.925)"/>
            <path id="Path_496" d="M35 62.3l.541-.141.788.207-.3.466z" class="cls-1" data-name="Path 496" transform="translate(-23.515 -41.759)"/>
            <path id="Path_497" d="M56.242 103.39l-.843.555a1.408 1.408 0 0 0-1.231 0l-.528-.223z" class="cls-1" data-name="Path 497" transform="translate(-36.038 -69.459)"/>
            <path id="Path_498" d="M333.4 37.64h1.2l.105.2-1.342.243-.263-.328z" class="cls-1" data-name="Path 498" transform="translate(-223.792 -25.285)"/>
            <path id="Path_499" d="M55.729 102.5h-1.841l-.118-.23 1.473-.148z" class="cls-1" data-name="Path 499" transform="translate(-36.125 -68.606)"/>
            <path id="Path_500" d="M30.265 8.57v.466l-.751-.148-.249.128-.565-.357a8.785 8.785 0 0 1 1.565-.089z" class="cls-1" data-name="Path 500" transform="translate(-19.282 -5.752)"/>
            <path id="Path_501" d="M99.936 110.769c-.033-.19-.043-.236-.056-.308.108-.023.233-.039.345-.069s.233-.075.259-.082l1.72.125-.066.328a2.891 2.891 0 0 0-2.202.006z" class="cls-1" data-name="Path 501" transform="translate(-67.104 -74.108)"/>
            <path id="Path_502" d="M64.951 82.89c.059.259.729.446.276.765-.656-.053-.817-.253-.689-.551z" class="cls-1" data-name="Path 502" transform="translate(-43.332 -55.686)"/>
            <path id="Path_503" d="M9.883 48.91l.075.22-1.1.2L8.36 49a7.958 7.958 0 0 1 1.523-.092z" class="cls-1" data-name="Path 503" transform="translate(-5.617 -32.853)"/>
            <path id="Path_504" d="M346.892 52.55l1.621.213a2.241 2.241 0 0 1-.052.263l-.909-.18-.328.141c-.233-.122-.663-.201-.332-.437z" class="cls-1" data-name="Path 504" transform="translate(-232.977 -35.302)"/>
            <path id="Path_505" d="M59.267 105.06v.466c-.394 0-.765-.02-1.122 0a8.994 8.994 0 0 0-.965.19c.52-.502 1.47-.216 2.087-.656z" class="cls-1" data-name="Path 505" transform="translate(-38.416 -70.581)"/>
            <path id="Path_506" d="M39.788 8.054c.1.167-.033.121-.217.056L39 8.271V7.68c.689 0 .8.328 1.26.41-.082.059-.167.115-.473-.036a2.471 2.471 0 0 0-.282-.236l-.24.1.092.049c.07-.041.135-.08.431.087z" class="cls-1" data-name="Path 506" transform="translate(-26.202 -5.157)"/>
            <path id="Path_507" d="M138.612 2.375a.433.433 0 0 0-.18-.184 2.576 2.576 0 0 0-.532-.108l.407-.223 1.181.345z" class="cls-1" data-name="Path 507" transform="translate(-92.647 -1.246)"/>
            <path id="Path_508" d="M44.168 90.374h-.758v-.984z" class="cls-1" data-name="Path 508" transform="translate(-29.165 -60.053)"/>
            <path id="Path_509" d="M5.225 34.138H3.43l.079-.328.886.213.361-.151z" class="cls-1" data-name="Path 509" transform="translate(-2.304 -22.712)"/>
            <path id="Path_510" d="M48.936 102.573l-1.076.236c-.328-.289.1-.361.44-.5z" class="cls-1" data-name="Path 510" transform="translate(-32.076 -68.733)"/>
            <path id="Path_511" d="M46.06 97.563l1.313-.213.108.285h-1.408z" class="cls-1" data-name="Path 511" transform="translate(-30.945 -65.401)"/>
            <path id="Path_512" d="M40.222 90.57v.93l-.522-.879z" class="cls-1" data-name="Path 512" transform="translate(-26.672 -60.846)"/>
            <path id="Path_513" d="M91.082 107.28c.072.361-.259.446-.755.505-.194-.325.138-.423.755-.505z" class="cls-1" data-name="Path 513" transform="translate(-60.649 -72.072)"/>
            <path id="Path_514" d="M84.979 107.61c-.174.374-.328.545-.984.512-.036-.302.305-.384.984-.512z" class="cls-1" data-name="Path 514" transform="translate(-56.43 -72.294)"/>
            <path id="Path_515" d="M350.4 86.285H349l1.162-.3z" class="cls-1" data-name="Path 515" transform="translate(-234.474 -57.769)"/>
            <path id="Path_516" d="M4.388 49.328L4.27 49h1.388z" class="cls-1" data-name="Path 516" transform="translate(-2.869 -32.917)"/>
            <path id="Path_517" d="M206.084 3.518l-.194-.249a4.453 4.453 0 0 0 .486-.072 2.852 2.852 0 0 0 .42-.2c.072.38-.256.466-.712.521z" class="cls-1" data-name="Path 517" transform="translate(-138.326 -2.012)"/>
            <path id="Path_518" d="M209.25 3.65h.873l.5.256-.8.033z" class="cls-1" data-name="Path 518" transform="translate(-140.584 -2.449)"/>
            <path id="Path_519" d="M257.707 5.31l.765.3-.42.282-.512-.492z" class="cls-1" data-name="Path 519" transform="translate(-173.027 -3.564)"/>
            <path id="Path_520" d="M181.46 6.683l.4-.423.6.125-.824.394z" class="cls-1" data-name="Path 520" transform="translate(-121.913 -4.203)"/>
            <path id="Path_521" d="M15.891 13.7v.223h-.8c.088-.257.088-.257.8-.223z" class="cls-1" data-name="Path 521" transform="translate(-10.138 -9.19)"/>
            <path id="Path_522" d="M108.87 106.48h.476c.026.125.053.253.085.417l-.561.03z" class="cls-1" data-name="Path 522" transform="translate(-73.144 -71.535)"/>
            <path id="Path_523" d="M233.09 5.872l.656-.062v.545z" class="cls-1" data-name="Path 523" transform="translate(-156.6 -3.9)"/>
            <path id="Path_524" d="M43.65 102.9h1.063l-.177.361z" class="cls-1" data-name="Path 524" transform="translate(-29.326 -69.13)"/>
            <path id="Path_525" d="M15.226 17.065L14.57 17l.656-.466z" class="cls-1" data-name="Path 525" transform="translate(-9.789 -11.102)"/>
            <path id="Path_526" d="M32.046 14.085l-.656-.473.656-.062z" class="cls-1" data-name="Path 526" transform="translate(-21.089 -9.1)"/>
            <path id="Path_527" d="M283.06 6l-.824.328L282 6z" class="cls-1" data-name="Path 527" transform="translate(-189.46 -4.028)"/>
            <path id="Path_528" d="M350.3 41.223c-.056-.207.112-.345.581-.443v.443z" class="cls-1" data-name="Path 528" transform="translate(-235.34 -27.395)"/>
            <path id="Path_529" d="M10.245 40.49H8.9a2.261 2.261 0 0 1 1.345 0z" class="cls-1" data-name="Path 529" transform="translate(-5.979 -27.131)"/>
            <path id="Path_530" d="M335.974 48.18l-.627.328c.036.03-.072-.023-.052-.043.23-.265.246-.265.679-.285z" class="cls-1" data-name="Path 530" transform="translate(-225.265 -32.366)"/>
            <path id="Path_531" d="M31.976 62.438l-.656-.138.656-.413z" class="cls-1" data-name="Path 531" transform="translate(-21.042 -41.577)"/>
            <path id="Path_532" d="M342.76 98.938l.939-.328.1.328z" class="cls-1" data-name="Path 532" transform="translate(-230.282 -66.247)"/>
            <path id="Path_533" d="M128.3 113.848l.755-.328.125.328z" class="cls-1" data-name="Path 533" transform="translate(-86.198 -76.265)"/>
            <path id="Path_534" d="M100.118 115.6h-1.113l-.1-.069.627-.092z" class="cls-1" data-name="Path 534" transform="translate(-66.452 -77.555)"/>
            <path id="Path_535" d="M326.83 31.828h-1.06v-.092l1.053-.036z" class="cls-1" data-name="Path 535" transform="translate(-218.867 -21.294)"/>
            <path id="Path_536" d="M327.317 26.76h.518c.03.075.052.144.082.22-.377.115-.623.115-.6-.22z" class="cls-1" data-name="Path 536" transform="translate(-219.905 -17.975)"/>
            <path id="Path_537" d="M24.77 26.388l.755-.328.125.328z" class="cls-1" data-name="Path 537" transform="translate(-16.642 -17.505)"/>
            <path id="Path_538" d="M308.451 22.562l-1.021-.282h.984c.007.092.02.18.037.282z" class="cls-1" data-name="Path 538" transform="translate(-206.545 -14.965)"/>
            <path id="Path_539" d="M.916 21.85l-.545.279L0 21.85z" class="cls-1" data-name="Path 539" transform="translate(0 -14.677)"/>
            <path id="Path_540" d="M246.493 5.969l-.509.328c-.066-.187-.1-.269-.135-.371l.45-.046z" class="cls-1" data-name="Path 540" transform="translate(-165.173 -3.947)"/>
            <path id="Path_541" d="M236.779 6.065h-.5l.5-.555z" class="cls-1" data-name="Path 541" transform="translate(-158.744 -3.699)"/>
            <path id="Path_542" d="M75.26 2.19l.62.266-.725.069c-.036-.1-.059-.164-.085-.23z" class="cls-1" data-name="Path 542" transform="translate(-50.435 -1.468)"/>
            <path id="Path_543" d="M61.05 84.388l.755-.328c.056.144.082.21.125.328z" class="cls-1" data-name="Path 543" transform="translate(-41.016 -56.472)"/>
            <path id="Path_544" d="M34 59.158h-.42l-.11-.258.53-.06z" class="cls-1" data-name="Path 544" transform="translate(-22.487 -39.528)"/>
            <path id="Path_545" d="M360.8 57.958l.509-.328c.066.187.1.269.135.371l-.45.046z" class="cls-1" data-name="Path 545" transform="translate(-242.402 -38.715)"/>
            <path id="Path_546" d="M355.4 86.13h.328v.256l-.128.046c-.082-.112-.151-.227-.2-.302z" class="cls-1" data-name="Path 546" transform="translate(-238.774 -57.863)"/>
            <path id="Path_547" d="M1.75 19.943V19.7l.564.19z" class="cls-1" data-name="Path 547" transform="translate(-1.176 -13.232)"/>
            <path id="Path_548" d="M307.76 24.44l.541.02.112.082-.571.112-.082-.214z" class="cls-1" data-name="Path 548" transform="translate(-206.767 -16.417)"/>
            <path id="Path_549" d="M347.053 36.37l.61.207c-.702.023-.702.023-.61-.207z" class="cls-1" data-name="Path 549" transform="translate(-233.138 -24.432)"/>
            <path id="Path_550" d="M6.32 40.36h.463v.44c-.24-.23-.342-.328-.463-.44z" class="cls-1" data-name="Path 550" transform="translate(-4.246 -27.112)"/>
            <path id="Path_551" d="M.851 45.411H.08v-.075l.761-.056a.356.356 0 0 0 .01.131z" class="cls-1" data-name="Path 551" transform="translate(-.054 -30.418)"/>
            <path id="Path_552" d="M195.087.322l-.387-.329c.371 0 .719-.059.387.329z" class="cls-1" data-name="Path 552" transform="translate(-130.808 .01)"/>
            <path id="Path_553" d="M81.352 2.5l-.742-.177.742-.066z" class="cls-1" data-name="Path 553" transform="translate(-54.157 -1.515)"/>
            <path id="Path_554" d="M267.346 5.5v.394h-.146l-.108-.387z" class="cls-1" data-name="Path 554" transform="translate(-179.443 -3.692)"/>
            <path id="Path_555" d="M273.56 5.64l.742.177-.742.066z" class="cls-1" data-name="Path 555" transform="translate(-183.79 -3.786)"/>
            <path id="Path_556" d="M18.928 17.462H18.6v-.256l.125-.046a3.057 3.057 0 0 1 .203.302z" class="cls-1" data-name="Path 556" transform="translate(-12.496 -11.526)"/>
            <path id="Path_557" d="M47.57 76.61h.742l-.689.144a1.052 1.052 0 0 0-.053-.144z" class="cls-1" data-name="Path 557" transform="translate(-31.96 -51.467)"/>
            <path id="Path_558" d="M330.19 94.7v-.45h.144v.45z" class="cls-1" data-name="Path 558" transform="translate(-221.837 -63.318)"/>
            <path id="Path_559" d="M332.99 94.36l-.384.2a1.591 1.591 0 0 0-.066-.2z" class="cls-1" data-name="Path 559" transform="translate(-223.415 -63.392)"/>
            <path id="Path_560" d="M143.492 113.22v.361l-.282-.328z" class="cls-1" data-name="Path 560" transform="translate(-96.215 -76.063)"/>
            <path id="Path_561" d="M96.988 115.9l-.328-.328c.282-.024.66-.099.328.328z" class="cls-1" data-name="Path 561" transform="translate(-64.941 -77.63)"/>
            <path id="Path_562" d="M45.26 77.779v-.3h.14v.3z" class="cls-1" data-name="Path 562" transform="translate(-30.408 -52.051)"/>
            <path id="Path_563" d="M59.419 84.36v.246h-.141l-.108-.246z" class="cls-1" data-name="Path 563" transform="translate(-39.753 -56.674)"/>
            <path id="Path_564" d="M81.46 108.37h.482l.023.072-.473.056a2.991 2.991 0 0 1-.032-.128z" class="cls-1" data-name="Path 564" transform="translate(-54.729 -72.805)"/>
            <path id="Path_565" d="M32.879 55.353v.247h-.144c-.036-.082-.069-.164-.105-.249z" class="cls-1" data-name="Path 565" transform="translate(-21.922 -37.183)"/>
            <path id="Path_566" d="M87.66 108.616v-.246h.14l.105.246z" class="cls-1" data-name="Path 566" transform="translate(-58.894 -72.805)"/>
            <path id="Path_567" d="M78.82 109.076v-.246h.138l.112.24z" class="cls-1" data-name="Path 567" transform="translate(-52.955 -73.114)"/>
            <path id="Path_568" d="M354 53.336v-.246h.138l.112.24z" class="cls-1" data-name="Path 568" transform="translate(-237.833 -35.665)"/>
            <path id="Path_569" d="M25.79 61.009v-.3h.148v.3z" class="cls-1" data-name="Path 569" transform="translate(-17.327 -40.784)"/>
            <path id="Path_570" d="M216.86 1.24V1h.14c.036.082.072.164.112.243z" class="cls-1" data-name="Path 570" transform="translate(-145.696 -.669)"/>
            <path id="Path_571" d="M201.392 4.638h-.482v-.075l.486-.053z" class="cls-1" data-name="Path 571" transform="translate(-134.98 -3.027)"/>
            <path id="Path_572" d="M203.972 4.638h-.482l-.02-.075.5-.053z" class="cls-1" data-name="Path 572" transform="translate(-136.7 -3.027)"/>
            <path id="Path_573" d="M310.864 103.76v.3h-.144v-.3z" class="cls-1" data-name="Path 573" transform="translate(-208.756 -69.707)"/>
            <path id="Path_574" d="M38.186 10v.246h-.141A8.643 8.643 0 0 1 37.94 10z" class="cls-1" data-name="Path 574" transform="translate(-25.49 -6.715)"/>
            <path id="Path_575" d="M35.483 11.39v.246h-.138c-.039-.082-.075-.164-.115-.243z" class="cls-1" data-name="Path 575" transform="translate(-23.669 -7.649)"/>
            <path id="Path_576" d="M108.159 105.922h-.289v-.272h.19z" class="cls-1" data-name="Path 576" transform="translate(-72.472 -70.977)"/>
            <path id="Path_577" d="M111.1 105.738h-.482l-.02-.072.486-.056c.005.026.016.069.016.128z" class="cls-1" data-name="Path 577" transform="translate(-74.306 -70.95)"/>
            <path id="Path_578" d="M333.13 50.67l.706.105c-.138.023-.269.053-.407.062-.043.004-.102-.059-.299-.167z" class="cls-1" data-name="Path 578" transform="translate(-223.812 -34.039)"/>
            <path id="Path_579" d="M23.94 51.73h.482l.023.069-.486.059z" class="cls-1" data-name="Path 579" transform="translate(-16.084 -34.751)"/>
            <path id="Path_580" d="M320.38 24.786v-.246h.141c.036.079.072.161.112.243z" class="cls-1" data-name="Path 580" transform="translate(-215.246 -16.484)"/>
            <path id="Path_581" d="M323.562 24.656l-.7-.1c.135-.023.269-.053.407-.066.047-.008.106.048.293.166z" class="cls-1" data-name="Path 581" transform="translate(-216.912 -16.449)"/>
            <path id="Path_582" d="M340.3 29.108h-.482l-.023-.072.473-.056a.856.856 0 0 0 .032.128z" class="cls-1" data-name="Path 582" transform="translate(-228.286 -19.467)"/>
            <path id="Path_583" d="M44.31 85.5v-.25h.141c.036.085.072.167.105.249z" class="cls-1" data-name="Path 583" transform="translate(-29.769 -57.272)"/>
            <path id="Path_584" d="M65.69 105.7v-.148h.1v.148z" class="cls-1" data-name="Path 584" transform="translate(-44.134 -70.91)"/>
            <path id="Path_585" d="M120.645 105.12v.151h-.1v-.151z" class="cls-1" data-name="Path 585" transform="translate(-80.991 -70.621)"/>
            <path id="Path_586" d="M38.253 92.628l-.253-.1.092-.046.2.121z" class="cls-1" data-name="Path 586" transform="translate(-25.53 -62.129)"/>
            <ellipse id="Ellipse_290" cx=".069" cy=".105" class="cls-1" data-name="Ellipse 290" rx=".069" ry=".105" transform="translate(17.471 27.778)"/>
            <path id="Path_587" d="M174.53 109.8v-.151h.1v.151z" class="cls-1" data-name="Path 587" transform="translate(-117.257 -73.665)"/>
            <path id="Path_588" d="M76.405 108.75v.148h-.1v-.148z" class="cls-1" data-name="Path 588" transform="translate(-51.269 -73.06)"/>
            <path id="Path_589" d="M97.638 111v.151h-.1V111z" class="cls-1" data-name="Path 589" transform="translate(-65.532 -74.572)"/>
            <path id="Path_590" d="M148.86 110.258v-.148h.1v.148z" class="cls-1" data-name="Path 590" transform="translate(-100.011 -73.974)"/>
            <ellipse id="Ellipse_291" cx=".069" cy=".105" class="cls-1" data-name="Ellipse 291" rx=".069" ry=".105" transform="translate(49.702 36.104)"/>
            <path id="Path_591" d="M347.07 75.361v-.151h.1v.151z" class="cls-1" data-name="Path 591" transform="translate(-233.177 -50.526)"/>
            <path id="Path_592" d="M38.355 81.11v.148h-.1v-.148z" class="cls-1" data-name="Path 592" transform="translate(-25.705 -54.49)"/>
            <path id="Path_593" d="M357.8 82v.148h-.1V82z" class="cls-1" data-name="Path 593" transform="translate(-240.319 -55.088)"/>
            <path id="Path_594" d="M339.11 94.848V94.7h.1v.148z" class="cls-1" data-name="Path 594" transform="translate(-227.829 -63.621)"/>
            <path id="Path_595" d="M51.625 101.5v.164h-.1v-.148z" class="cls-1" data-name="Path 595" transform="translate(-34.62 -68.189)"/>
            <path id="Path_596" d="M54.18 77.158V77h.1v.148z" class="cls-1" data-name="Path 596" transform="translate(-36.401 -51.729)"/>
            <path id="Path_597" d="M355.108 77v.148H355V77z" class="cls-1" data-name="Path 597" transform="translate(-238.505 -51.729)"/>
            <path id="Path_598" d="M27.64 80.8v-.15h.1v.15z" class="cls-1" data-name="Path 598" transform="translate(-18.57 -54.181)"/>
            <path id="Path_599" d="M336.535 29.43l-.2.121-.092-.049.24-.1z" class="cls-1" data-name="Path 599" transform="translate(-225.901 -19.749)"/>
            <path id="Path_600" d="M337 29.151l.2-.121.092.049-.236.1z" class="cls-1" data-name="Path 600" transform="translate(-226.412 -19.5)"/>
            <path id="Path_601" d="M17 26.878v-.148h.1v.148z" class="cls-1" data-name="Path 601" transform="translate(-11.421 -17.955)"/>
            <path id="Path_602" d="M340.978 26.27v.151h-.1v-.151z" class="cls-1" data-name="Path 602" transform="translate(-229.019 -17.646)"/>
            <path id="Path_603" d="M326.72 24.608v-.148h.1v.148z" class="cls-1" data-name="Path 603" transform="translate(-219.505 -16.43)"/>
            <path id="Path_604" d="M322.32 24.2l-.24-.105.092-.046.2.121z" class="cls-1" data-name="Path 604" transform="translate(-216.388 -16.155)"/>
            <path id="Path_605" d="M299.29 20.528v-.148h.1v.148z" class="cls-1" data-name="Path 605" transform="translate(-201.077 -13.689)"/>
            <path id="Path_606" d="M16.13 47.268v-.148h.1v.148z" class="cls-1" data-name="Path 606" transform="translate(-10.837 -31.654)"/>
            <path id="Path_607" d="M26.75 42.7v-.15h.1v.15z" class="cls-1" data-name="Path 607" transform="translate(-17.972 -28.584)"/>
            <ellipse id="Ellipse_292" cx=".069" cy=".105" class="cls-1" data-name="Ellipse 292" rx=".069" ry=".105" transform="translate(112.131 13.5)"/>
            <path id="Path_608" d="M22.425 39.87v.148h-.1v-.148z" class="cls-1" data-name="Path 608" transform="translate(-15.002 -26.783)"/>
            <path id="Path_609" d="M353.27 36.848V36.7h.1v.148z" class="cls-1" data-name="Path 609" transform="translate(-237.343 -24.653)"/>
            <path id="Path_610" d="M341.436 36.65l.236.1-.092.049-.2-.121z" class="cls-1" data-name="Path 610" transform="translate(-229.354 -24.62)"/>
            <path id="Path_611" d="M340.906 36.431l-.236-.1.092-.049.2.121z" class="cls-1" data-name="Path 611" transform="translate(-228.877 -24.371)"/>
            <path id="Path_612" d="M323.18 33.218v-.148h.1v.148z" class="cls-1" data-name="Path 612" transform="translate(-217.127 -22.215)"/>
            <path id="Path_613" d="M3.742 18.319H3.45v-.049h.292z" class="cls-1" data-name="Path 613" transform="translate(-2.318 -12.271)"/>
            <path id="Path_614" d="M40.62 11.47h.289v.049h-.289z" class="cls-1" data-name="Path 614" transform="translate(-27.29 -7.703)"/>
            <path id="Path_615" d="M31.275 58.9v.148h-.1V58.9z" class="cls-1" data-name="Path 615" transform="translate(-20.948 -39.568)"/>
            <path id="Path_616" d="M32.06 60.861v-.151h.1v.151z" class="cls-1" data-name="Path 616" transform="translate(-21.539 -40.784)"/>
            <path id="Path_617" d="M343.615 60.24l-.2.121-.092-.046.236-.105z" class="cls-1" data-name="Path 617" transform="translate(-230.658 -40.449)"/>
            <path id="Path_618" d="M54.278 54.82v.148h-.1v-.148z" class="cls-1" data-name="Path 618" transform="translate(-36.401 -36.827)"/>
            <path id="Path_619" d="M360.445 53.46v.151h-.1v-.151z" class="cls-1" data-name="Path 619" transform="translate(-242.099 -35.914)"/>
            <path id="Path_620" d="M53.4 53v.148h-.1V53z" class="cls-1" data-name="Path 620" transform="translate(-35.809 -35.605)"/>
            <path id="Path_621" d="M25.87 18.7v-.15h.1v.15z" class="cls-1" data-name="Path 621" transform="translate(-17.381 -12.459)"/>
            <path id="Path_622" d="M323.736 97.82l.24.105-.092.046-.2-.121z" class="cls-1" data-name="Path 622" transform="translate(-217.463 -65.717)"/>
            <path id="Path_623" d="M315.22 104.368v-.148h.1v.148z" class="cls-1" data-name="Path 623" transform="translate(-211.779 -70.016)"/>
        </g>
    </g>
</svg>
