<svg xmlns="http://www.w3.org/2000/svg" width="93.591" height="38.766" viewBox="0 0 93.591 38.766">
    <defs>
        <style>
            .cls-1{fill:#fff}.cls-2{fill:#286f9f}.cls-3{fill:#c2006f}.cls-4{fill:#1b592a}.cls-5{fill:#7aa32d}.cls-6{fill:#3e8e37}.cls-7{fill:#0084c3}.cls-8{fill:#c90e1e}.cls-9{fill:#e9cf00}.cls-10{fill:#d4431c}.cls-11{fill:#721452}
        </style>
    </defs>
    <g id="Group_2367" data-name="Group 2367" transform="translate(-15.409 -80.685)">
        <g id="Layer_2" data-name="Layer 2" transform="translate(15.409 81.188)">
            <g id="Layer_1" data-name="Layer 1" transform="translate(0 -.01)">
                <path id="Path_465" d="M92.689 18.972c.333.187.546.407.39.771l-.636-.18-.443.173-.341-.151-.257.158-.559-.184-.326.141-.287-.154-.469.18-.5-.177-.333.164-.21-.292h-.257l-.169.312-.31-.381-.621.328-.169-.092c-.164.033-.344.085-.528.105s-.351 0-.677 0l.541.328.421-.167.349.328.351-.213.487.2.42-.169c.274.148.675-.043.805.023a2.3 2.3 0 0 0 .985.128.672.672 0 0 0 .085.187 1.274 1.274 0 0 0 .192.174 5.617 5.617 0 0 1-2.219.233l-1.554.574-.1-.4-.364-.013c-.033.144-.067.282-.105.453l-.269-.125a5.83 5.83 0 0 1-.9.118 6.582 6.582 0 0 1-.947-.131l-.359.253a1.836 1.836 0 0 0 .641.171 1.922 1.922 0 0 1 .844 0 5.908 5.908 0 0 1 .947.121 6.35 6.35 0 0 0 1.524.026L87.5 22c.162.226.454.263.88.217v-.269c.172.02.434-.075.464.154l-.028-.023-.187.105.072.046a.942.942 0 0 0 .146-.128c.4-.079.541.171.785.285l.272-.158 1.326.361c-.457.1-.882.279-1.1.2a.918.918 0 0 0-.839.053l-.449-.167a1.577 1.577 0 0 1-.741.072c-.121.03-.074.085-.041.082a1.567 1.567 0 0 0 .318-.066c-.139-.023-.274-.049-.277-.016a1.238 1.238 0 0 1 .5.328l-.354.7-.731-.459-.062.5 1.088.259.126-.568.39.226c.087.056.167.115.372.256.046-.243.069-.374.1-.532l-.677-.066v-.23h1.755c.023.2.169.433-.177.633l.341.276.513-.19a18.335 18.335 0 0 0 3.032.194l-.305.391h-1.451c-.056 0-.108-.066-.257-.158-.067.141-.131.282-.144.312h-.88l-.636.305v-.361l-.69.246.239.207-.341.075-.328-.45v.774l-.654-.171-.385.459 1.011.443.349-.377.59.21.305-.148.918.328.336-.358 1.19.538-1.262.686-.331-.2-.641.328-.19-.125-.316.19c.031.036.044.089.087.1.341.115.69.22 1.026.328l-.344.433h-1.37l-.336.223.441.108c0 .092.021.223.041.433l-.472-.1-1.539.1c-.015.062-.028.131-.049.233h2.645c.046.105.082.19.128.3l.739.072-.754.328a.958.958 0 0 1 .4 1.112c-.487-.131-.918.4-1.454 0l-.4.259c.387 0 .87-.062 1 .046.318.272.621-.18.947.062.159.118.628.059.957.069s.664 0 1.154 0a9.25 9.25 0 0 1-2.416.5 17.127 17.127 0 0 1-2.419.131c-.013 0-.044.036-.036.049a.122.122 0 0 0 .074.053h1.947l.577.269c-.213.141-.405.328-.5.328-.41-.082-.79.249-1.183 0a3.965 3.965 0 0 1-1.539.151c-.28.381.369.23.426.4a3.242 3.242 0 0 1 1.306-.089l.564.719h-1.46v.715l-.367.046-.177-.328-.3.364-.513-.213-.544.177-.28-.167-.485.328-.3-.371c-.095.364-.677.6-.305 1l.593-.433.708.955H85.7c-.028.236-.054.42-.09.7l-.313-.436-.654.308a.487.487 0 0 0-.664.033l-.29-.167c-.272-.128-.375.348-.757.108-.257-.158-.528.135-.864.062a4.983 4.983 0 0 0-.918 0v.328l.313-.174.577.453c.636-.394 1.149.167 1.729-.026l.115.459h.287l.221-.305c.1.131.2.253.316.4a6.575 6.575 0 0 1-2.245.656c-.31.046-.582-.138-.959-.02a3.35 3.35 0 0 1-1.121 0 9.744 9.744 0 0 1-2.532-.121c-.577.328-1.388-.082-1.847.23l-1.377-.138-.192.364-.257-.3a13.99 13.99 0 0 0-2.242-.171 7.933 7.933 0 0 0-.967.272l-.21-.121-.287.187c.067.135.128.249.257.489l-.564-.328.228.453a7.736 7.736 0 0 1 1.1-.043 6.9 6.9 0 0 0 3.078-.138c.174-.033.364-.023.544-.043.513-.056 1.006.4 1.526.023.564 0 1.126 0 1.69-.02a13.962 13.962 0 0 1 1.7 0c.336.039.539-.187.877-.082a6.324 6.324 0 0 0 1.026.118l-1.316.338.457.61-.274.18a17.613 17.613 0 0 0-3.142.154c-.221-.243-.569 0-.864-.066-.339-.062-.677-.112-1.07-.177l-.228.135a2.7 2.7 0 0 0-2.309-.1l.31.236a11.539 11.539 0 0 1-2.214-.1c-.829-.079-1.4.446-2.152.085a.746.746 0 0 0-.441 0 7.135 7.135 0 0 1-2.18.138 3.036 3.036 0 0 1-.952-.105c-.323-.1-.9.18-1.224.085a11 11 0 0 0-1.626-.131 4.865 4.865 0 0 1-.785-.263l-.244.131-.77-.217v-.637c-.567.026-.434.328-.457.532h-.413v-.7l-.99-.033.185.394-.649.276.616.292-.531.459-.8-.482c-.095.2-.169.348-.195.407-1.106 0-1.97.02-2.822 0a4.283 4.283 0 0 1-1.737-.125c-.48.24-1.134.043-1.613.279H48.3a1.87 1.87 0 0 1-.313.207c-.236.1-.493.171-.749.256l-.462-.446c-.559-.1-1.047.358-1.578.03a1.563 1.563 0 0 1-1.306-.121l.223-.164-.67-.9v.656c-.439.089-.947-.082-1.165.354.056.118.146.328.239.509-.218.115-.226-.069-.421-.082l-1.211.3-.49-.19-.257.328-.464-.285-.462.463c-.085-.131-.136-.217-.19-.3l-.487.391-.228-.712c-.09.3-.136.453-.2.656l-.785-.368a1.354 1.354 0 0 0-.513 0 2.567 2.567 0 0 1-1.38.328l-.344-.213-.434.151-.439-.312 1.249-.305-.721-.328-1.083.118-.305-.623h.546l.074.121c.051-.039.1-.082.095-.121h.408l.218.328c.074-.351.074-.351-.257-.594a2.74 2.74 0 0 0-.375.282H33.9v-.358l-.477-.328c-.939.174-1.962-.026-2.67.42l-.467-.2-.459.171-.441-.161a3.471 3.471 0 0 1-1.318.158c-.305 0-.6.223-.921.033-.257.213-.634.069-.952.108s-.741-.1-1.057.141c-.056.043-.346-.075-.513-.069a7.32 7.32 0 0 0-.967.082 7.091 7.091 0 0 1-.813.135c-.31 0-.626-.056-1.062-.1l-1.449.3-.305-.24c.049-.105.056-.18.092-.187a4.166 4.166 0 0 1 1.026-.2 7.649 7.649 0 0 0 2.424-.276.7.7 0 0 1 .221 0 13.32 13.32 0 0 0 2.147-.187c-.162-.328-.626-.328-.9-.243a3.268 3.268 0 0 1-1.393.115c-.367-.033-.708.256-1.062 0a4.617 4.617 0 0 1-1.118.2.54.54 0 0 0-.151.085 1.963 1.963 0 0 0-1.6.036l-.351-.308h.918c-.054-.089-.069-.151-.1-.154-.38-.049-.77-.092-1.244-.148l.156.391-.257.075-.428-.578.77-.085-.192-.351.646-.22.354.164 1.236-.3.257.085 2.15-.194.226.105 1.975-.453.169.108c.68 0 1.193-.4 1.891-.138l.923-.22c.28.391.847-.285 1.154.092.321-.292.829-.059 1.244-.187a7.716 7.716 0 0 1 1.539-.131l.377-.226a4.281 4.281 0 0 0-.613-.266c-.121.03-.074.085-.044.082a2.528 2.528 0 0 0 .318-.062c-.136-.026-.272-.053-.274-.02.174.184.074.282-.026.381l-.385-.174-.346.171-.321-.21.28-.2-.826-.026-.485.5-.151-.3c-.4.177-.836-.046-1.262.059a12.206 12.206 0 0 0-1.242.2l-.377-.174c-.89.427-2.019-.082-2.958.305a1.841 1.841 0 0 1-.559 0 4.888 4.888 0 0 0-1.342.023c-.434.144-.713-.066-1.08-.043a12.351 12.351 0 0 0-1.749.328l-.257-.328a8.3 8.3 0 0 1-1.054.292c-.323.046-.672 0-1.008.023s-.77-.108-1.067.167l-.457-.44-.675-.072 1.111-.249.244.138.328-.144.98.328.552-.5.5.18.939-.194v-.259l-.613.115-.223-.1c-.272 0-.539.328-.834 0-.257.18-.77.046-.882.151-.308.266-.562.02-.826.046-.321.033-.644.056-.965.089s-.621.079-1.026.128l-.318-.289-.546.2-.162-.289.875-.069.316-.2-.439-.253.336-.45 1.239.545-.257.19.4.072.11-.469h.418l-.033.023.159.121.072-.046a1.555 1.555 0 0 0-.2-.1.419.419 0 0 0-.021-.148l.031.023.187-.1-.062-.066a1.154 1.154 0 0 0-.146.128h-.3l-.657-.207.41-.541-.906.171-.359-.201a.811.811 0 0 1 .277-.174c.485-.079 1-.1 1.454-.213.336-.085.636.03.931-.026s.646-.171.97-.256l1.118.282 1.231-.433.482.177.187-.341.613.328v-.479h.385c.038-.131.077-.266.133-.453l.582.328v-.469a3.582 3.582 0 0 0-1.149.023c-.41.187-.693-.2-.962 0s-.7-.128-.985.115v-.63l.587.184.062-.41h-1.245l-.328-.574a10.411 10.411 0 0 1-3.591.144l-.611.23-.628-.213.257-.305-.354-.075c-.056.171-.105.328-.169.522l-.385-.656h-.893v-.066l2.822-.328a4.034 4.034 0 0 0 2.309-.138l.736.121v-.515l-.7.213-.6-.358-.257.112-.657-.384a.246.246 0 0 1 .085-.121c.2-.141.413-.276.652-.43l-.277-.256.2-.148-.975-.328c.485-.446 1.175-.328 1.891-.351l-.257-.532.457-.1a1.941 1.941 0 0 0-.105-.131l1.17.171.364-.3c-.095-.072-.133-.131-.185-.138a5.389 5.389 0 0 1-1.172-.125 4.729 4.729 0 0 0-1.362.072l-.121-.066-1.5.148-.421-.706c.421-.151.664-.394.618-.745l-.277-.18-.87.656h-1.451a9.482 9.482 0 0 1 1.439-1.07v-.42l.257-.177.916.092c-.038-.135-.021-.23-.082-.263-.21-.105-.449-.19-.713-.3l.77-.509.339.141a10.361 10.361 0 0 1 3.145-.269c.485-.184.375-.44.357-.679l-.4-.259c-.026.279-.049.512-.069.745-.572-.02-.344-.345-.513-.535h-.277l.156.558-.159.049a1.539 1.539 0 0 1-.257-.23c-.1-.144-.105-.328-.257-.443a2.4 2.4 0 0 0-.664-.161c-.023-.075-.044-.144-.069-.22H15.6l-.18.312-.493-.154-.441.272a46.6 46.6 0 0 0-.287-.564l-.834-.043-.565-.326-.359.177a3.382 3.382 0 0 1-.228-.135l-.413.266-.357-.138-.585.213-.359-.538-.2.118.346-.253-.893.171-.472-.476-.269.377-.457-.164-.172.276-.739-.463-.675.18.367-.387 3.771-.377c.08-.161.162-.328.257-.548a5.211 5.211 0 0 0-2.309-.187l-.493.305c-.051-.1-.1-.184-.195-.361l-.285.361a2.568 2.568 0 0 0-1.781-.023l-.21-.128c-.3-.1-.434.312-.8.089a2.257 2.257 0 0 0-.634.053H3.644l.282-.394c.557-.158 1.159.089 1.649-.158.4.19.847 0 1.283.082a3.412 3.412 0 0 0 1.613-.108 3.818 3.818 0 0 1 1.118-.016 2.157 2.157 0 0 0 1.326-.243c-.169-.285-1.062.069-1.106-.525l.68.158a4.9 4.9 0 0 1 .731-.125 4.049 4.049 0 0 0 .87.049.827.827 0 0 1 .8.085l.441-.272.49.161.2-.354 1.4.125.513-.144c-.021-.033-.036-.092-.064-.1-.387-.033-.77-.328-1.17 0a4.975 4.975 0 0 1-1.077-.1 4.428 4.428 0 0 0-1.685-.21 6.729 6.729 0 0 1-1.1-.118l-.405.246h-.976c-.036-.062-.082-.151-.174-.328-.126.158-.221.282-.405.512l-.21-.4-.864-.19-.331.555h-.54v-.328L6.379 18l.257-.3-.236-.156c-.026 0-.064-.053-.077-.049l-.793.226.031.19.59-.141.074.282H5.134c-.049-.085-.095-.174-.146-.269l-.49.3-.436-.283-.336.391-.536-.614.554-.161-.221-.328.3-.207.218.305c.082-.108.123-.226.236-.289a2.358 2.358 0 0 1 .487-.141l.257.158.464-.19.605.2.18-.328H4.9v-.614l.257.154 1.343-.161.39.256v.518l-.413.007v.5l.421-.518h.512l-.282-.438.677-.364c-.221-.092-.41-.158-.575-.243s-.305-.194-.513-.328l-.1.285H5.563v-.335l1.208-.207.236.141a.7.7 0 0 1 .854-.03.8.8 0 0 1 .788 0c.318-.328.559.141.9 0 .023-.046.069-.135.159-.3l.257.328 1.567-.285.239.141.292-.171.434.177 1.052-.24-.487-.433.539-.259-1.111-.263-.305.161-.375-.276.434-.358.444.138 1.1-.3c-.631-.246-1.308.079-1.8-.249-.562.243-.257.623-.362.968l-1.006.233-.349-.328-.613.226-.064-.427 1.052-.256.31.463.449-.568-.364-.151-.156.105-.349-.144-.428.158-1.965-.446-.2.128-.482-.154-.4.358a1.738 1.738 0 0 0-1.411-.144c-.477.131-.785-.213-1.2.02l-.575-.738c1.539-.249 3.078-.263 4.7-.459.926.328 1.932-.056 3.042-.141a1.838 1.838 0 0 0 .392.092 12.008 12.008 0 0 0 2.5-.164 1.078 1.078 0 0 0 .233-.1c.385.328.726 0 1.077-.039l.3.184.074-.269c-.587-.167-1.247.121-1.744-.2a4.911 4.911 0 0 1-2.07.105l-.151-.292a.779.779 0 0 1-.993.446l.513-.525-.77.108v-.538a3.419 3.419 0 0 1 2.134-.082 2.418 2.418 0 0 0 .823-.049c.174-.016.341-.056.513-.082l.482.476.382-.328-.033.02.156.121a.586.586 0 0 0 .072-.046 1.51 1.51 0 0 0-.195-.1l.28-.272a4.91 4.91 0 0 1 2.214.282 8.418 8.418 0 0 1 2.565-.456 6.811 6.811 0 0 0 2.317-.125c.408.259.913.108 1.372.128a1.3 1.3 0 0 0 .934-.138c.272-.217.487.246.87.046.154-.079.58.089.882.092a6.953 6.953 0 0 0 .949-.118l.28.131c.257.049.562-.351.882-.02.236-.272.687-.059 1.026-.2.228-.1.626.144.888-.112.105.046.185.092.274.125a.48.48 0 0 0 .192.046c.257-.161.5 0 .721 0a5.112 5.112 0 0 0 .99-.249.507.507 0 0 0 .705-.056 1.94 1.94 0 0 0 1.667 0l.421.18.513-.18.387.19c.021-.151.036-.285.062-.5l-.677.135a4.414 4.414 0 0 0-1.9-.016.8.8 0 0 1-.292.066c-.888-.279-1.77.154-2.652 0-.236-.039-.467-.1-.754-.151l-.575.328-.387-.154-.192.105-1.334-.164-.43.286c-.287-.036-.557-.056-.816-.105a2.789 2.789 0 0 0-.723-.02c-.936.062-1.888.03-2.822.016-.085 0-.167-.089-.257-.138l-.274.167-.4-.121a11.194 11.194 0 0 1-2.45.1c-.236 0-.48-.043-.839-.075l-.21.19c-.9.135-1.7-.125-2.427.18-.29-.328-.677-.023-1.026-.066-.4-.049-.8-.062-1.2-.072a1.816 1.816 0 0 0-.749.043c-.313.23-.421-.194-.652-.046l-.226.141-1.311-.223.372-.371h2.162l.085-.259c.257.043.554.269.736.023l.677.112.375-.417 1.429-.148a3.114 3.114 0 0 0 1.475.056 11.469 11.469 0 0 1 2.761-.042 5.963 5.963 0 0 0 1.326-.151l.257.171 1.475.082c.131-.105.257-.223.405-.328l.444.292c.236-.02.49-.3.713.082l.431-.391.513.141a.661.661 0 0 1 .721.02c.31-.328.562.1.88.023l.321-.226a11.487 11.487 0 0 0 3.267-.04l.349.125.539-.174.282.167a1 1 0 0 1 .162-.105.648.648 0 0 1 .192-.039c.282.328.852-.285 1.026.187l.577-.213.313.164a.793.793 0 0 1 .257-.135 12.613 12.613 0 0 0 2.727-.131c.38.243.88.036 1.283.138.354.092.6-.246.975-.03.169.1.539-.194.813.02a34.807 34.807 0 0 1 4.9-.154 2.215 2.215 0 0 0 .487-.141 3.209 3.209 0 0 0 .685.135 4.64 4.64 0 0 0 .813-.138c.241-.049.441.21.739 0 .133-.089.418.217.716 0 .19-.141.439.144.746.056a3.712 3.712 0 0 1 .836-.062h.906a1.282 1.282 0 0 1 .377.128l.257-.154a1.959 1.959 0 0 0 1.624 0l.513.18.328-.158.169.1 1.716-.154.513.328.77-.269.457.168c.067-.128.113-.213.19-.354l.613.171.441-.171.336.148c.218-.125.457-.263.659.026l.3-.177.546.18.385-.171 1.059.361.169-.466.423.21L65.76 7.8c.239.289.77-.256.975.2.375-.3.9 0 1.3-.2a3.88 3.88 0 0 0 2.083 0 1.289 1.289 0 0 1 .449 0 6.159 6.159 0 0 0 2.088.016 4.206 4.206 0 0 1 .77.062 3.147 3.147 0 0 0 .611 0c.095 0 .223-.112.257-.092.513.19 1.026-.138 1.506 0a1.268 1.268 0 0 1 .257.135 7.426 7.426 0 0 1 3.078 0l.431-.266 1.026.656-.257.161-.6-.328-.323.328h-1.654l-.139-.263h-.28l-.131.246a1.117 1.117 0 0 1-.195.049 7.819 7.819 0 0 0-2.18.141 1.483 1.483 0 0 1-.449-.089l-.944.217-.231-.213-2.245.2-.257-.105a2.548 2.548 0 0 1-1.642.1c-.277.046-.475.089-.677.112-.418.049-.888-.1-1.257.138-.331-.253-.77-.1-1.165-.128a.739.739 0 0 0-.292.144c-.208.053-.416.1-.749.177l.321-.328c-.68 0-1.265-.016-1.855.026l.752.689 1.539-.328v-.225h.369l.149.289.369-.167.569.289 1.1-.266.346.177.49-.19.3.292 2.052-.243a2.1 2.1 0 0 0 1.578-.046c.231.328.675.02 1.059.135a5.077 5.077 0 0 0 1.242-.112 2.292 2.292 0 0 1 1.3.164l.331-.164.149.1.744-.125.536.725.77-.676h1.476l-.675.3.08.1.593-.082.318.138.513-.305.513.368.121-.532h.627a2.177 2.177 0 0 0 .013.289l-.033-.023-.185.105.072.046a.794.794 0 0 0 .146-.128l.644.3 1.424-.085.559-.505.146.591h1.149l-.318.22c-.323.023-.718-.3-.975.062l-.385-.19c-.208.184-.385.345-.585.528l-.526-.2a.646.646 0 0 1-.257.092c-.349-.043-.693-.112-1.152-.19l-.331.305-.526-.2-.444.161-1.083-.305-.426.282a7.976 7.976 0 0 1-1.118-.112 1.9 1.9 0 0 0-1.524.2l-1.67-.3-.185.328a7.58 7.58 0 0 1-2.419-.269 8.32 8.32 0 0 1-2.188.148l-.146.282-.162-.075c-.39.026-.731.043-1.067.082a.722.722 0 0 0-.285.151l-.031-.023-.187.105.072.046a.942.942 0 0 0 .146-.128c.257.043.528.112.8.138a7.771 7.771 0 0 0 .785 0 2.561 2.561 0 0 0 .475-.151c.115-.072.159-.2.28-.259a1.309 1.309 0 0 1 .428 0l-.375.279c.528-.043.965.089 1.38-.141a1.007 1.007 0 0 0 .9 0l.4.263a3 3 0 0 0 1.834-.272c.457.263 1.006.092 1.5.138a3.8 3.8 0 0 1 1.483.135 1.615 1.615 0 0 1 1.431.026l.493-.18.349.174 1.144-.259.475.279.528-.194.326.164.274-.164.418.138a.35.35 0 0 1 .172-.085 7.522 7.522 0 0 0 .8.108c.267 0 .475-.141.7-.128.38.026.749.121 1.149.19l-.613.44a6.289 6.289 0 0 0-2.2-.187.638.638 0 0 0-.257.135c-.316-.263-.77-.092-1.129-.148l-.39.256-1.852-.259-.549.328-.562-.141c-.156-.036-.292.164-.513 0a1.632 1.632 0 0 0-.646-.03 1.356 1.356 0 0 0-.528.036c-.192.207-.354-.085-.5 0a.418.418 0 0 1-.477.049.893.893 0 0 0-.5-.089c-.572.2-1.252-.272-1.711.131l-.916-.125-.069.128c.2.062.4.138.608.184s.475.066.847.118a2.124 2.124 0 0 1 1.657.069l.257.538h.934l1.344.656v.348a3.668 3.668 0 0 1-1.077.112 2.3 2.3 0 0 0-1.175-.039c-.362.158-.77-.2-1.026.138l-.3-.282-1.457.259-.485-.2.362.512h3.268a1.253 1.253 0 0 0 .385-.1.814.814 0 0 1 .864.187l-.631.384h-.805c.174.115.257.226.359.226h1.747a2.305 2.305 0 0 1 .6-.056c.377.23.785.053 1.2.141-.231-.361-.364-.656.205-.939a1.549 1.549 0 0 0 1.508-.043l.362.371-1.1.2v.371c.513-.056 1.026.112 1.478-.161a4.526 4.526 0 0 0 2.332.033l1.819.328v.174a.785.785 0 0 1-.208.049c-.513 0-1.026-.328-1.56-.075-.457.22-1.026-.092-1.478.194a.962.962 0 0 1-.636.023c-.552-.292-1.011-.066-1.619.085l.675.194 1.254-.144.97.42-.649.522-.328-.18-.464.194-.49-.18-.228.105a1.951 1.951 0 0 0-.621-.02c-.257.158-.285-.079-.428-.066-.205.02-.405.053-.687.089l-.641-.161.359.486c1.221-.364 2.37.154 3.56.02l.4.443.228-.128.18.108a.867.867 0 0 1 1.067.128l-.4.089v.463l.457-.151.513.226a7.845 7.845 0 0 0-.423.328h-2.6c.416.328.416.328.972.154l.277.167.431-.131a.708.708 0 0 0 .257.105c.6.049 1.208.082 1.814.115.049 0 .105-.066.169-.108l.313.194-.233.276.369.272.257-.463c.223-.148.621.043.836.292h1.147l.341-.226.072.226a3.7 3.7 0 0 1 .49.026 1.592 1.592 0 0 1 .351.158l.485-.164.172.151zm-26.534-8.165l-.044-.03-.185.105.072.046a.225.225 0 0 0 .11-.148l.044.03.185-.105-.072-.046c-.051.041-.105.066-.11.148zm-53.843 4.88l.046.03.185-.1-.072-.049c-.054.043-.105.082-.11.148l-.044-.026-.187.1.072.049c.053-.044.105-.083.11-.152zm63.1 23.673l.044-.026-.159-.125-.077.066a.462.462 0 0 0 .226.072l-.044.03.156.121.072-.049a.477.477 0 0 0-.215-.089zM70.2 11.552l.044-.03-.159-.121-.072.049a4.232 4.232 0 0 0 .77.263c-.164-.118-.21-.174-.244-.171a2.533 2.533 0 0 0-.318.066c.128.023.269.049-.021-.056zm-47.4-.328l-.044.03.156.121.072-.046a.722.722 0 0 0-.382-.085h.2l-.087-.289h-.146c.013.1.023.194.233.269zm-3.221 11.643l.044-.03-.156-.121-.072.049a.72.72 0 0 0 .372.082h-.192c.031.148.059.292.087.44.123-.066.162-.131.162-.194s-.037-.174-.245-.226zm6.169 12.142l-.044.03.159.121.072-.049a.654.654 0 0 0-.208-.082l.113-.079-.534-.226a2.715 2.715 0 0 1-.028.282 3.224 3.224 0 0 0 .469 0zm9.85 4.922h-.136c.031.148.059.3.092.466l.369-.062a1.482 1.482 0 0 0-.426-.4 3.01 3.01 0 0 0-.036-.305l-.428.03a1.548 1.548 0 0 0 .033.253 3.889 3.889 0 0 0 .534.018zM11.181 19.287l.044-.03-.156-.121-.069.046a.209.209 0 0 0 .257 0v.584l.7-.285a2.031 2.031 0 0 0-.775-.194zm25.69 21.383l-.044.03.159.121.069-.049c-.062-.033-.123-.069-.77.21l.569-.371-.564-.308a1.3 1.3 0 0 1-.128.308 1.017 1.017 0 0 1-.2.158c.152.1.229.146.909-.1zm-.021-1.35l-1.283.272.7.489.318-.154.593.194.257-.368.436.164.59-.226c-.177-.413-.439-.059-.554-.072l-.687-.236.672-.558-1.044.276zm4.633-29.862l.667.24 1.539-.328c-.038-.085-.072-.151-.082-.174h-4.889c-.054 0-.108.066-.159.1l-.213-.128-1.56.2.4.42 2.209-.288.221.2 1.226-.207.387.121zm-1.147 30.03l.9.584.4-.151.341.154c.195-.272.485-.532.257-.84l-.487-.144zm3.612-30.3l.441.374.821-.154.618-.407.513.033c.038.164.067.3.1.427l.231.092.257-.41.364.24.649-.171a11.78 11.78 0 0 0-1.5-.328 10.312 10.312 0 0 0-2.5.305zm-16.2 29.649l-.98.148-.567-.112v.328L29.9 39l-.362-.548-.274-.089-.213.417-.257-.164-.605.371-.341-.479zM55.727 9.019v.505L56.5 9.2l.295.144.48-.184.467.171.354-.138c.139.1.033.387.464.249l.195-.308.513.174c.128-.285-.162-.351-.3-.407-.426.049-.734.1-1.044.118a3.254 3.254 0 0 1-1.108 0c-.416-.201-.696.088-1.089 0zM30.55 38.726h3.117v-.282c-.513.056-1.026-.108-1.472.148a1.8 1.8 0 0 0-1.483 0l-.636-.171v.715zm22-29.475a3.074 3.074 0 0 0 1.483.512l-.233-.725c-.364-.18-.605.174-1.011 0a3.989 3.989 0 0 0-1.226-.023l.693.387zM35.788 38.129c-.257.066-.441.128-.641.161s-.469.059-.77.1l-.421-.141c-.023.141-.036.223-.054.348h.934a2.331 2.331 0 0 1 .631-.062c.357.22.513-.138.77-.082l.257.108.416-.128.131.062.541-.1-.385-.233-.29.154-.559-.184-.28.158zm-19.28-3.121c.513.03.872.436 1.539.259l-.387-.587c-.6.266-.823-.558-1.5-.158zM9.136 16.5l.377.246.351-.305h.985c.033 0 .062-.062.11-.112l-.872-.085a.68.68 0 0 0 .018-.069l.58-.053.257-.4H9.89l-.364.7zm78.913 9.32l.428-.328-.459-.256c-.18.377-.564-.062-.87.108-.257.148-.829-.079-1.008.276l1.213.2.39-.167zM47.775 9.032l.541.436c.233-.358.723.118 1-.151a3.9 3.9 0 0 1 .559.158c.121-.148.233-.279.336-.413a.459.459 0 0 1-.041-.03zm14.16-.023c-.513 0-.89.016-1.254 0s-.731-.082-1.257-.141l.482.479.469-.158.257.135.549-.18.321.148zm10.551 2.8l.921-.177-.077-.243-.369.171-.487-.177-.416.164-.654-.184c-.026.128-.036.2-.049.263zm3.078 0l-.316.423a1.352 1.352 0 0 0 1.077.135v-.325zm-39.075 25.71l-.818-.266-.439.184-.431-.194-.257.551a2.569 2.569 0 0 1 .721-.22c.428.161.754-.049 1.224-.055zM62.361 9.412l.836-.2-.059-.364c-.439 0-.875-.085-1.041.22zm-11.3-.1l.339.207-.054-.656c-.48-.036-.8.026-.867.328-.018.085.031.174.059.328zm-36.99 5.677l.562-.18c.205.02.215.2.413.1a.644.644 0 0 1 .026-.2c-.449-.046-.829-.374-1.426-.085zm60-2.77l-.921-.4-.257.584h.9zm-57.45 2.139l-1.193.427c.333.144.375.144.872.023l.321.19zm57.229 1.69l-.439.512.359.44.115-.5.626-.233zM46.4 40.036c.274-.194.623-.053.888-.105.108-.02.174-.135.331-.263H46.4zM18.789 14.568c-.59-.115-.885-.03-1.049.328l.385.177zm-1.283-1.7l-1.1.217.072.24 1.1-.217zm-4.386 2.74q-.175.337-.321.7c-.018.046.074.108.149.213l.462-.236zm76.768 11.42c-.182.046-.344.092-.513.121s-.339.039-.7.079l1.259.167.257-.174zm-74.8-11.551l-.133-.075a1.183 1.183 0 0 1-.257.148 2.791 2.791 0 0 1-.385.072c.069.158.115.269.169.374a1.306 1.306 0 0 0 .213 0zm-.626-2.412l-.577.161a3.794 3.794 0 0 0 1.465.02zm17.5 24.848l.841-.3-1.244-.171zm33.463.781a2.334 2.334 0 0 0-1.08-.039l.331.276zm18.864-3.685a1.154 1.154 0 0 0 0-.354c-.021-.059-.141-.108-.223-.158a1.328 1.328 0 0 0-.182-.056v.568zM19 34.746l-.144.125.708.328v-.453zm4.212-1.67l.864.259-.467-.568zM79.07 15.293v.072h1.362v-.072zm-52.237-2.625l.031.177h.708l-.087-.282zm-3.555 0a.392.392 0 0 0-.582.062l.2.351zm-3.186-2.1v.532l.513-.049zM23.509 32.6l.341-.459-.341-.3zM88.7 30.162h-.841l.2.328zm-6-11.787a2.826 2.826 0 0 1 .416-.141 4.028 4.028 0 0 1 .493-.036v-.079h-.9zm-72.4-.729l.482-.308c-.312.009-.458.154-.482.308zm74.614 17.425v-.689l-.364.45zM24.055 12.92c-.257-.125-.257-.328-.605-.285.018.131.036.263.062.436zm-7.8-.853v.551l.513-.131zm-1.911 2.369V13.9l-.513.069zm12.782 20.379c-.257.062-.711.125-.344.391zm.036 3.938l.182-.082a1.2 1.2 0 0 0-.144-.23 1.3 1.3 0 0 0-.231-.151l-.141.079zm30.328 0c.031.148.062.279.11.5l.318-.515zM80.353 36.5l-.149.1c.018.066.038.131.067.23l.567-.069zm-22.376 3.007c-.021.328.167.328.467.22l-.064-.22zM33.708 37.67h.692l-.1-.328zm-3.26.33v-.456l-.482.066zM9.218 17.2v.45l.482-.06zm7.411-1.611h-.687c.031.108.051.174.1.328zm.418.345v-.545l-.375.039zm73.161 7.915l-.09-.407c-.128.072-.118.144-.162.2a1.6 1.6 0 0 1-.313.223zm-70.65-11.224l.118.571.377-.246zm52.973-.092c-.062-.272-.09-.4-.121-.551l-.385.22zM18.407 30.989l-.849.082.333.253zm4.261 3.058c.257-.43-.036-.354-.257-.328zm.454 1.178c.257-.4 0-.348-.3-.328zm3.848-1.04c-.072.223-.072.223.48.194zm-9.809-19.6v.243l.58-.066zm42.582-3.938c.036.131.054.2.041.144l.513-.144zm7.126.276l-.146-.305-.1.049v.256zm-50.277.469l.146.322.1-.046v-.256zm68.955 14.234h.353l-.054-.2zm-62.939 6.652v.24l.58-.066zm-1.554-.026c-.072.223-.072.223.48.194zm-5.523-.7L16 31.4l-.08-.072h-.392zm22.161 6.819c.605.167.534 0 .482-.2zm-9.589-.63h-.354l.054.2zm44.1-.22l-.569.377.644-.089zM49.6 39.619h.2l-.085-.391H49.6zm27.636-.219l-.472.144.08.069h.392zm-24.554.105l.146.3.1-.046v-.256zm-27.275-1.04l.185.3.1-.043v-.256zm63.616-7.324v-.128l-.38.053.015.075zm-68.061 7.72v-.072h-.454v.072zm.649-.243h-.192l.082.249h.11zm9.532-.794V37.7l-.38.053.015.075zm-1.588-.249l-.195.016c.028.079.059.161.087.243h.108zm3.481 0l.023.128.369-.059-.018-.069zm6.049.715a.566.566 0 0 0-.026-.128l-.369.056a.744.744 0 0 1 .018.072zM23 31.5v.075h.454V31.5zm-6.639-.036h-.113v.3h.113zm5.674.742h-.113v.3h.113zm65.692-.269l.026.128.369-.059a.681.681 0 0 1-.018-.069zm-.3.1a.754.754 0 0 0-.026-.128l-.369.059a.341.341 0 0 0 .018.069zm-67.1-9.044h.113v-.3h-.113zm58.23 16.354h-.115v.3h.115zm-59.9-28.53h-.2c.031.079.062.161.09.243h.108zm49.749.089v-.076h-.454v.075zM79.07 39.383v.075h.454v-.075zM24.555 12.6l-.2.016c.031.079.059.161.09.243h.108zm.531.249l.195-.016-.08-.24h-.108zM21.239 13l.195-.016c-.028-.082-.059-.161-.087-.243h-.108zm1.061-.25h-.2l.09.243h.11zm-4.086.151h-.195c.028.082.059.161.087.243h.108zM76.3 39.347h-.115v.3h.115zM73.671 9.878l.2-.016-.09-.243h-.108zm-7.313.518v.075h.454V10.4zm-53.284 7.683h.113v-.3h-.113zm-3.2.128h.2l-.09-.263h-.107zm5.221.793l.023.128.372-.056-.018-.072zm3.863-5.848l.195-.016c-.028-.079-.059-.161-.087-.243h-.108zM20.7 13l-.023-.128-.372.056.018.072zm-4.789.023H15.8v.3h.113zm9.548 1.221h-.195l.082.249h.113zm47.669.391a.566.566 0 0 0-.026-.128l-.369.059.018.069zm-55.569.955v.075h.462v-.075zm-2.953.6v.072h.454v-.072zm64.957 20.604h.195c-.028-.079-.059-.161-.087-.243h-.108zm-54.779-1.786l-.023-.128-.369.056.018.072zm30.3 4.785h.074v-.151h-.074zm-34.8-4.811v-.049h-.228v.049zm64.463-9.418v.049h.226v-.049zM15.287 26.9v.049h.226V26.9zm45.17 11.748v.052h.226v-.049zm-37.452 0v.052h.228v-.049zm63.327-6.688v.049h.228v-.049zm1.2-1.687h.077v-.148h-.077zm3.027-.148h-.074v.148h.074zm-70.282 6.147v.049h.223v-.049zm5.451-4.164v.049h.228v-.049zm-.526-.053h-.077v.145h.075zm-.534 6.563h.077v-.148h-.077zm54.174-1.884v.049h.228v-.049zm-52.509 1.72h-.074v.164h.074zm-5.295-6.842h.074v-.148h-.074zm10.363.049v.066h.228v-.066zm36.923 6.793h-.074v.164h.074zm-39.19-4.364v-.05h-.228v.049zm48.738 5.4h-.085v.148h.077zm-38.734.1v-.049h-.226v.059zM66.6 39.3v-.053h-.228v.053zm-42.238-6.99v-.049h-.222v.049zm41.921 6.59h-.077v.148h.077zm10.743-24.283v-.049H76.8v.049zm-2.052-.049v.049h.249v-.049zm-54.541-.056h-.077v.151h.077zm2.717-.148h-.074v.148h.074zm2.95-1.641h-.077v.148h.077zm-17.625-.1v.066h.228v-.066zm66.438-.5h-.073v.148h.074zm-6.885-.446h.077v-.148h-.075zM10.975 21.7v.049h.225V21.7zm74.449-1.933v.049h.228v-.049zm-69.76-1.821h-.074v.148h.074zm-6.808-.459h-.071v.148h.077zm9.61-1.887v.046h.226V15.6zm36.771-6.234v.046h.233v-.049zm-.77-.049h-.077v.148h.077zm32.458 14.275h-.074v.148h.074z" class="cls-1" data-name="Path 465" transform="translate(-2.143 -5.143)"/>
                <path id="Path_466" d="M83.23 4.774V5.2h-.518l-.131-.456-.545.443h-1.352l-.1-.528H79.5v.22l.535.1V5.3l-1.089.19-1.506-.18a.919.919 0 0 0-.154-.443c.171.217.171.217.755.056l.807.2-.614-.466c-.446 0-.761 0-.948.2a.922.922 0 0 1-.535.63c-.285-.092-.6-.243-.879 0l-.545-.161-.413.2a5.678 5.678 0 0 0-2.014-.167h-1.972l-.712-.538v.538a15.749 15.749 0 0 1-2.862-.108l-.522.253h-.942l-.5-.41c-.03 0-.144.033-.148.056-.066.492-1.014.312-1.49.5a1.943 1.943 0 0 1-.955 0c-.374-.312-.965.141-1.277-.135a14.714 14.714 0 0 1-3.072.154 6.967 6.967 0 0 0-.843.148l-.427-.171-.518.118a1.044 1.044 0 0 0-.922.016 1.083 1.083 0 0 0-1.093.03c-.308-.272-.607.023-.919 0a8.88 8.88 0 0 0-1.165.121l-.361-.796c.151-.374.919-.151 1.385-.266s.9-.184 1.313-.266l.3.154.719-.328.489.18c.049-.026.108-.089.184-.1.886-.069 1.785-.138 2.655-.187a3.314 3.314 0 0 1 1.756.269l1.172-.407a.8.8 0 0 0 .883 0 4.368 4.368 0 0 0 1.788.3c.443 0 .893.059 1.47.1l.233-.279.614.138.456-.161.61.3.916-.141.679.5c0-.476.548-.732 1.368-.856a2.914 2.914 0 0 0 .8.079c.558-.285 1.027-.039 1.49.033l.4-.2A2.385 2.385 0 0 0 75.63 4l1.217.328L78.059 4l.42.161a8.122 8.122 0 0 1 1.063-.135h6.465l.436.223-1.313.873-.578-.18-.259.269h-.6c-.4-.069.177-.417-.446-.433l.043-.023-.2-.121-.092.049a2.2 2.2 0 0 0 .236.092zm-25.83.539V5.25h-.58v.062zm-3.826.062h-.249c.036.082.075.164.112.243h.138z" class="cls-1" data-name="Path 466" transform="translate(-38.379 -2.684)"/>
                <path id="Path_467" d="M214.2 3.263c.128 0 .381-.049.683-.089-.151-.069-.053-.023.049.02l.233-.108 2.225.167c-.194.328-.581.712-.023 1.129l-.771-.1a.929.929 0 0 1-.784-.023l-.45.161-.555-.2-.574.18-.384-.089-1.506.108-.657-.419 1.424-.1-.751-.2-.958.131.23.656a2.179 2.179 0 0 1-1.24-.174l.561-.1v-.504c.738-.053 1.037-.3.952-.709l2.254.4c-.033-.039-.066-.079.026-.138a2 2 0 0 1-.3.656l1.953.089.735-.522-1.985.171a1.162 1.162 0 0 0-.391-.394z" class="cls-1" data-name="Path 467" transform="translate(-157.032 -2.012)"/>
                <path id="Path_468" d="M179.991 4.277v.384l-1.408.154-.407-.118-.364.174c-.3-.23-.771-.118-1.24-.158V4.1l.745.144.079-.187a1.017 1.017 0 0 0-.24-.079 8.242 8.242 0 0 1-2.336-.154c-.351.174-.709 0-1.057 0a10.62 10.62 0 0 0-1.273.151c-.02-.144-.039-.276-.059-.43l3.577-.282a21.831 21.831 0 0 0 3.314.125l.656.364-.361.187H178.1l-.194.259 1.447.151z" class="cls-1" data-name="Path 468" transform="translate(-128.764 -2.187)"/>
                <path id="Path_469" d="M251.951 3.99c-.039-.043-.079-.082-.112-.125l-.1-.148H247.8l-.811.886-.555-.916-.774-.226.456-.364a15.336 15.336 0 0 1 2.5.138c.5.128 1.1-.213 1.746-.131a6.246 6.246 0 0 0 1.736.125 16.5 16.5 0 0 1 2.422-.125l.765.394-.387.22c-1.736-.28-2.133-.227-2.947.272z" class="cls-1" data-name="Path 469" transform="translate(-183.797 -2.073)"/>
                <path id="Path_470" d="M21.595 16.924a2.254 2.254 0 0 1-.725.423c-.6.118-1.257.417-1.729.053l-3.38.292c.433-.246.627-.453.827-.456.758 0 .984-.194.984-.545 0-.069.249-.138.387-.207a1.831 1.831 0 0 0 .545.263c-.2.144-.427.279-.656.413a1.224 1.224 0 0 0 .135.069c.505-.043.784-.158.515-.482-.1-.046-.1-.118-.1-.213l1.702-.194v.545l-.558.3a1.641 1.641 0 0 0 .4.049c.374-.19.719-.394 1.109-.614zm-2.517.3h.1v-.148h-.1z" class="cls-1" data-name="Path 470" transform="translate(-10.588 -10.975)"/>
                <path id="Path_471" d="M110.621 106.132l1.254.154.505-.246c1.04.269 1.04.269 1.575.8l-.633.266.112.089.656-.141.236.253a14.591 14.591 0 0 1-3.452.348l-.4-.207c.2-.049.541-.092.555-.148a1.4 1.4 0 0 0-.079-.656 2.954 2.954 0 0 0-.329-.512zm1.608.656l.144-.079-.683-.226a1.716 1.716 0 0 1-.039.282 5.906 5.906 0 0 0 1.388-.144c-.837.174-.837.174-.532.387l-.269.154.41.207c.6-.19.479-.459-.42-.584z" class="cls-1" data-name="Path 471" transform="translate(-82.229 -71.239)"/>
                <path id="Path_472" d="M323.992 97.224c1.5-.075 1.6-.023 1.641 0l-.22.873-.374-.1-.617.266a8.913 8.913 0 0 1-2.432-.656 2.78 2.78 0 0 1 .036-.328c.282-.062.2.128.564.059.883-.161 1.808-.348 1.4-.089-1.408.135-1.427.144-1.447.154l.2.121.092-.046c-.074-.07-.156-.093 1.157-.254z" class="cls-1" data-name="Path 472" transform="translate(-241.778 -65.245)"/>
                <path id="Path_473" d="M235.993 4l.7.128c-.023.079-.053.161-.1.3l-.656-.19-.5.256-.2-.053c-.551-.151-.115-.459-.44-.692l-.44.1-1.743-.125 1.313-.535h2.33l.476.236z" class="cls-1" data-name="Path 473" transform="translate(-173.19 -2.14)"/>
                <path id="Path_474" d="M300.164 22.767h-.433l-.482.427-1.362-.249v-.525l-1.477-.285.984-.194 1.477.144c.184.298 1.116.315 1.293.682z" class="cls-1" data-name="Path 474" transform="translate(-222.132 -14.737)"/>
                <path id="Path_475" d="M330.517 91.324l.236-.328 1.329.21.656.391c-.374.328-.574.059-.82 0a11.328 11.328 0 0 1-2.658.154v-.394l.939-.417z" class="cls-1" data-name="Path 475" transform="translate(-246.662 -61.094)"/>
                <path id="Path_476" d="M45.7 7.32l-.492.308-.089-.036c-.141.194-.279.384-.453.617l-.374-.144-.587.151-.482-.673.377-.223z" class="cls-1" data-name="Path 476" transform="translate(-29.037 -4.915)"/>
                <path id="Path_477" d="M162 5.938c1.9-.164 3.282.384 4.857.512h-2.888z" class="cls-1" data-name="Path 477" transform="translate(-120.688 -3.966)"/>
                <path id="Path_478" d="M349.86 54.93l-.558.328-.561-.161-.358.148-.61-.18-.63.18-.492-.194-.581.4v-.614c.417-.233.837.21 1.221-.046a1.552 1.552 0 0 0 1.106.052 6.987 6.987 0 0 1 1.345-.079z" class="cls-1" data-name="Path 478" transform="translate(-257.956 -36.79)"/>
                <path id="Path_479" d="M277.94 3.63l.587-.4h2.432c.1.108.23.243.384.4z" class="cls-1" data-name="Path 479" transform="translate(-206.806 -2.167)"/>
                <path id="Path_480" d="M161.776 3.677a3.751 3.751 0 0 1-2.268.413l-.7-.328-.489.2-.167-.207 1.109-.194.909.246.417-.351z" class="cls-1" data-name="Path 480" transform="translate(-117.696 -2.321)"/>
                <path id="Path_481" d="M315.872 26.866c-.02-.223-.039-.407-.062-.656l.4.141a4.807 4.807 0 0 1 1.224-.072c.4.177.656-.19 1.014.049l-.436.394-.63-.154-.656.3-.482-.167z" class="cls-1" data-name="Path 481" transform="translate(-237.626 -17.606)"/>
                <path id="Path_482" d="M102.546 106.18c.144.328-.118.505-.656.6l-.328-.328a.853.853 0 0 1-1.011-.056l-.551.512v-.581h1.313l.226-.328z" class="cls-1" data-name="Path 482" transform="translate(-74.356 -71.212)"/>
                <path id="Path_483" d="M196.47 6.35l.673-.423.387.177.538-.154.21.108.843-.328c.387.253.243.427-.18.61z" class="cls-1" data-name="Path 483" transform="translate(-146.123 -3.846)"/>
                <path id="Path_484" d="M347.625 46.149A5.234 5.234 0 0 1 345 46.1c.45-.328 1.2-.263 1.729-.413z" class="cls-1" data-name="Path 484" transform="translate(-257.237 -30.693)"/>
                <path id="Path_485" d="M158.509 5.943l-.788.4-.3-.141-.532.266a1.841 1.841 0 0 1-.194-.043c-.509-.18-.226-.427-.348-.735l.807.18.285-.125z" class="cls-1" data-name="Path 485" transform="translate(-116.215 -3.82)"/>
                <path id="Path_486" d="M48.6 106.53l-.328.158a1.523 1.523 0 0 1-.725-.259 8.719 8.719 0 0 1 2.4-.328c-.066.328-.551.427-.86.627z" class="cls-1" data-name="Path 486" transform="translate(-31.946 -71.279)"/>
                <path id="Path_487" d="M5.3 19.521v-.194l.929-.158 2.208.148a8.8 8.8 0 0 1-3.137.204z" class="cls-1" data-name="Path 487" transform="translate(-3.561 -12.876)"/>
                <path id="Path_488" d="M313.865 103.463v.3l-.889.24-.423-.144-.358.121-.144-.075.771-.706zm-.774.23h.1v-.148h-.1z" class="cls-1" data-name="Path 488" transform="translate(-235.1 -69.331)"/>
                <path id="Path_489" d="M348.113 76.776v.345l-1.313.039.125-.085-.755-.167.656-.358z" class="cls-1" data-name="Path 489" transform="translate(-258.023 -51.427)"/>
                <path id="Path_490" d="M353.408 46.2a4.663 4.663 0 0 1 1.943.207l-.4.213h-1.89z" class="cls-1" data-name="Path 490" transform="translate(-262.652 -31.017)"/>
                <path id="Path_491" d="M38.328 92.8l1.2.427-1.047.574-.481-.693z" class="cls-1" data-name="Path 491" transform="translate(-25.53 -62.344)"/>
                <path id="Path_492" d="M300 26.846v-.426l1.526-.23c.4.292.115.466-.351.656l-.482-.128z" class="cls-1" data-name="Path 492" transform="translate(-227.004 -17.592)"/>
                <path id="Path_493" d="M310.29 23a1.536 1.536 0 0 0 1.28.1l.712.184-.673.374-.574-.164c-.062.085-.128.167-.23.3z" class="cls-1" data-name="Path 493" transform="translate(-233.917 -15.449)"/>
                <path id="Path_494" d="M22.71 13.478l.459-.328H24.7l.463.305a1.8 1.8 0 0 1-.223.121 5.4 5.4 0 0 0-2.23-.098z" class="cls-1" data-name="Path 494" transform="translate(-15.258 -8.832)"/>
                <path id="Path_495" d="M94.537 107.06l.686.148v.656l-.633-.5-.689.377v-.5z" class="cls-1" data-name="Path 495" transform="translate(-69.748 -71.925)"/>
                <path id="Path_496" d="M35 62.3l.541-.141.788.207-.3.466z" class="cls-1" data-name="Path 496" transform="translate(-23.515 -41.759)"/>
                <path id="Path_497" d="M56.242 103.39l-.843.555a1.408 1.408 0 0 0-1.231 0l-.528-.223z" class="cls-1" data-name="Path 497" transform="translate(-36.038 -69.459)"/>
                <path id="Path_498" d="M333.4 37.64h1.2l.105.2-1.342.243-.263-.328z" class="cls-1" data-name="Path 498" transform="translate(-249.242 -25.285)"/>
                <path id="Path_499" d="M55.729 102.5h-1.841l-.118-.23 1.473-.148z" class="cls-1" data-name="Path 499" transform="translate(-36.125 -68.606)"/>
                <path id="Path_500" d="M30.265 8.57v.466l-.751-.148-.249.128-.565-.357a8.785 8.785 0 0 1 1.565-.089z" class="cls-1" data-name="Path 500" transform="translate(-19.282 -5.752)"/>
                <path id="Path_501" d="M99.936 110.769c-.033-.19-.043-.236-.056-.308.108-.023.233-.039.345-.069s.233-.075.259-.082l1.72.125-.066.328a2.891 2.891 0 0 0-2.202.006z" class="cls-1" data-name="Path 501" transform="translate(-74.251 -74.108)"/>
                <path id="Path_502" d="M64.951 82.89c.059.259.729.446.276.765-.656-.053-.817-.253-.689-.551z" class="cls-1" data-name="Path 502" transform="translate(-46.144 -55.686)"/>
                <path id="Path_503" d="M9.883 48.91l.075.22-1.1.2L8.36 49a7.958 7.958 0 0 1 1.523-.092z" class="cls-1" data-name="Path 503" transform="translate(-5.617 -32.853)"/>
                <path id="Path_504" d="M346.892 52.55l1.621.213a2.241 2.241 0 0 1-.052.263l-.909-.18-.328.141c-.233-.122-.663-.201-.332-.437z" class="cls-1" data-name="Path 504" transform="translate(-258.427 -35.302)"/>
                <path id="Path_505" d="M59.267 105.06v.466c-.394 0-.765-.02-1.122 0a8.994 8.994 0 0 0-.965.19c.52-.502 1.47-.216 2.087-.656z" class="cls-1" data-name="Path 505" transform="translate(-38.416 -70.581)"/>
                <path id="Path_506" d="M39.788 8.054c.1.167-.033.121-.217.056L39 8.271V7.68c.689 0 .8.328 1.26.41-.082.059-.167.115-.473-.036a2.471 2.471 0 0 0-.282-.236l-.24.1.092.049c.07-.041.135-.08.431.087z" class="cls-1" data-name="Path 506" transform="translate(-26.202 -5.157)"/>
                <path id="Path_507" d="M138.612 2.375a.433.433 0 0 0-.18-.184 2.576 2.576 0 0 0-.532-.108l.407-.223 1.181.345z" class="cls-1" data-name="Path 507" transform="translate(-102.453 -1.246)"/>
                <path id="Path_508" d="M44.168 90.374h-.758v-.984z" class="cls-1" data-name="Path 508" transform="translate(-29.165 -60.053)"/>
                <path id="Path_509" d="M5.225 34.138H3.43l.079-.328.886.213.361-.151z" class="cls-1" data-name="Path 509" transform="translate(-2.304 -22.712)"/>
                <path id="Path_510" d="M48.936 102.573l-1.076.236c-.328-.289.1-.361.44-.5z" class="cls-1" data-name="Path 510" transform="translate(-32.076 -68.733)"/>
                <path id="Path_511" d="M46.06 97.563l1.313-.213.108.285h-1.408z" class="cls-1" data-name="Path 511" transform="translate(-30.945 -65.401)"/>
                <path id="Path_512" d="M40.222 90.57v.93l-.522-.879z" class="cls-1" data-name="Path 512" transform="translate(-26.672 -60.846)"/>
                <path id="Path_513" d="M91.082 107.28c.072.361-.259.446-.755.505-.194-.325.138-.423.755-.505z" class="cls-1" data-name="Path 513" transform="translate(-67.026 -72.072)"/>
                <path id="Path_514" d="M84.979 107.61c-.174.374-.328.545-.984.512-.036-.302.305-.384.984-.512z" class="cls-1" data-name="Path 514" transform="translate(-62.372 -72.294)"/>
                <path id="Path_515" d="M350.4 86.285H349l1.162-.3z" class="cls-1" data-name="Path 515" transform="translate(-259.925 -57.769)"/>
                <path id="Path_516" d="M4.388 49.328L4.27 49h1.388z" class="cls-1" data-name="Path 516" transform="translate(-2.869 -32.917)"/>
                <path id="Path_517" d="M206.084 3.518l-.194-.249a4.453 4.453 0 0 0 .486-.072 2.852 2.852 0 0 0 .42-.2c.072.38-.256.466-.712.521z" class="cls-1" data-name="Path 517" transform="translate(-152.883 -2.012)"/>
                <path id="Path_518" d="M209.25 3.65h.873l.5.256-.8.033z" class="cls-1" data-name="Path 518" transform="translate(-155.435 -2.449)"/>
                <path id="Path_519" d="M257.707 5.31l.765.3-.42.282-.512-.492z" class="cls-1" data-name="Path 519" transform="translate(-191.238 -3.564)"/>
                <path id="Path_520" d="M181.46 6.683l.4-.423.6.125-.824.394z" class="cls-1" data-name="Path 520" transform="translate(-134.752 -4.203)"/>
                <path id="Path_521" d="M15.891 13.7v.223h-.8c.088-.257.088-.257.8-.223z" class="cls-1" data-name="Path 521" transform="translate(-10.138 -9.19)"/>
                <path id="Path_522" d="M108.87 106.48h.476c.026.125.053.253.085.417l-.561.03z" class="cls-1" data-name="Path 522" transform="translate(-80.818 -71.535)"/>
                <path id="Path_523" d="M233.09 5.872l.656-.062v.545z" class="cls-1" data-name="Path 523" transform="translate(-173.044 -3.9)"/>
                <path id="Path_524" d="M43.65 102.9h1.063l-.177.361z" class="cls-1" data-name="Path 524" transform="translate(-29.326 -69.13)"/>
                <path id="Path_525" d="M15.226 17.065L14.57 17l.656-.466z" class="cls-1" data-name="Path 525" transform="translate(-9.789 -11.102)"/>
                <path id="Path_526" d="M32.046 14.085l-.656-.473.656-.062z" class="cls-1" data-name="Path 526" transform="translate(-21.089 -9.1)"/>
                <path id="Path_527" d="M283.06 6l-.824.328L282 6z" class="cls-1" data-name="Path 527" transform="translate(-209.423 -4.028)"/>
                <path id="Path_528" d="M350.3 41.223c-.056-.207.112-.345.581-.443v.443z" class="cls-1" data-name="Path 528" transform="translate(-260.79 -27.395)"/>
                <path id="Path_529" d="M10.245 40.49H8.9a2.261 2.261 0 0 1 1.345 0z" class="cls-1" data-name="Path 529" transform="translate(-5.979 -27.131)"/>
                <path id="Path_530" d="M335.974 48.18l-.627.328c.036.03-.072-.023-.052-.043.23-.265.246-.265.679-.285z" class="cls-1" data-name="Path 530" transform="translate(-250.715 -32.366)"/>
                <path id="Path_531" d="M31.976 62.438l-.656-.138.656-.413z" class="cls-1" data-name="Path 531" transform="translate(-21.042 -41.577)"/>
                <path id="Path_532" d="M342.76 98.938l.939-.328.1.328z" class="cls-1" data-name="Path 532" transform="translate(-255.732 -66.247)"/>
                <path id="Path_533" d="M128.3 113.848l.755-.328.125.328z" class="cls-1" data-name="Path 533" transform="translate(-95.266 -76.265)"/>
                <path id="Path_534" d="M100.118 115.6h-1.113l-.1-.069.627-.092z" class="cls-1" data-name="Path 534" transform="translate(-73.463 -77.555)"/>
                <path id="Path_535" d="M326.83 31.828h-1.06v-.092l1.053-.036z" class="cls-1" data-name="Path 535" transform="translate(-244.318 -21.294)"/>
                <path id="Path_536" d="M327.317 26.76h.518c.03.075.052.144.082.22-.377.115-.623.115-.6-.22z" class="cls-1" data-name="Path 536" transform="translate(-245.356 -17.975)"/>
                <path id="Path_537" d="M24.77 26.388l.755-.328.125.328z" class="cls-1" data-name="Path 537" transform="translate(-16.642 -17.505)"/>
                <path id="Path_538" d="M308.451 22.562l-1.021-.282h.984c.007.092.02.18.037.282z" class="cls-1" data-name="Path 538" transform="translate(-231.996 -14.965)"/>
                <path id="Path_539" d="M.916 21.85l-.545.279L0 21.85z" class="cls-1" data-name="Path 539" transform="translate(0 -14.677)"/>
                <path id="Path_540" d="M246.493 5.969l-.509.328c-.066-.187-.1-.269-.135-.371l.45-.046z" class="cls-1" data-name="Path 540" transform="translate(-182.515 -3.947)"/>
                <path id="Path_541" d="M236.779 6.065h-.5l.5-.555z" class="cls-1" data-name="Path 541" transform="translate(-175.39 -3.699)"/>
                <path id="Path_542" d="M75.26 2.19l.62.266-.725.069c-.036-.1-.059-.164-.085-.23z" class="cls-1" data-name="Path 542" transform="translate(-55.738 -1.468)"/>
                <path id="Path_543" d="M61.05 84.388l.755-.328c.056.144.082.21.125.328z" class="cls-1" data-name="Path 543" transform="translate(-41.016 -56.472)"/>
                <path id="Path_544" d="M34 59.158h-.42l-.11-.258.53-.06z" class="cls-1" data-name="Path 544" transform="translate(-22.487 -39.528)"/>
                <path id="Path_545" d="M360.8 57.958l.509-.328c.066.187.1.269.135.371l-.45.046z" class="cls-1" data-name="Path 545" transform="translate(-267.852 -38.715)"/>
                <path id="Path_546" d="M355.4 86.13h.328v.256l-.128.046c-.082-.112-.151-.227-.2-.302z" class="cls-1" data-name="Path 546" transform="translate(-264.224 -57.863)"/>
                <path id="Path_547" d="M1.75 19.943V19.7l.564.19z" class="cls-1" data-name="Path 547" transform="translate(-1.176 -13.232)"/>
                <path id="Path_548" d="M307.76 24.44l.541.02.112.082-.571.112-.082-.214z" class="cls-1" data-name="Path 548" transform="translate(-232.218 -16.417)"/>
                <path id="Path_549" d="M347.053 36.37l.61.207c-.702.023-.702.023-.61-.207z" class="cls-1" data-name="Path 549" transform="translate(-258.588 -24.432)"/>
                <path id="Path_550" d="M6.32 40.36h.463v.44c-.24-.23-.342-.328-.463-.44z" class="cls-1" data-name="Path 550" transform="translate(-4.246 -27.112)"/>
                <path id="Path_551" d="M.851 45.411H.08v-.075l.761-.056a.356.356 0 0 0 .01.131z" class="cls-1" data-name="Path 551" transform="translate(-.054 -30.418)"/>
                <path id="Path_552" d="M195.087.322l-.387-.329c.371 0 .719-.059.387.329z" class="cls-1" data-name="Path 552" transform="translate(-144.528 .01)"/>
                <path id="Path_553" d="M81.352 2.5l-.742-.177.742-.066z" class="cls-1" data-name="Path 553" transform="translate(-59.848 -1.515)"/>
                <path id="Path_554" d="M267.346 5.5v.394h-.146l-.108-.387z" class="cls-1" data-name="Path 554" transform="translate(-198.222 -3.692)"/>
                <path id="Path_555" d="M273.56 5.64l.742.177-.742.066z" class="cls-1" data-name="Path 555" transform="translate(-203.103 -3.786)"/>
                <path id="Path_556" d="M18.928 17.462H18.6v-.256l.125-.046a3.057 3.057 0 0 1 .203.302z" class="cls-1" data-name="Path 556" transform="translate(-12.496 -11.526)"/>
                <path id="Path_557" d="M47.57 76.61h.742l-.689.144a1.052 1.052 0 0 0-.053-.144z" class="cls-1" data-name="Path 557" transform="translate(-31.96 -51.467)"/>
                <path id="Path_558" d="M330.19 94.7v-.45h.144v.45z" class="cls-1" data-name="Path 558" transform="translate(-247.287 -63.318)"/>
                <path id="Path_559" d="M332.99 94.36l-.384.2a1.591 1.591 0 0 0-.066-.2z" class="cls-1" data-name="Path 559" transform="translate(-248.866 -63.392)"/>
                <path id="Path_560" d="M143.492 113.22v.361l-.282-.328z" class="cls-1" data-name="Path 560" transform="translate(-106.286 -76.063)"/>
                <path id="Path_561" d="M96.988 115.9l-.328-.328c.282-.024.66-.099.328.328z" class="cls-1" data-name="Path 561" transform="translate(-71.748 -77.63)"/>
                <path id="Path_562" d="M45.26 77.779v-.3h.14v.3z" class="cls-1" data-name="Path 562" transform="translate(-30.408 -52.051)"/>
                <path id="Path_563" d="M59.419 84.36v.246h-.141l-.108-.246z" class="cls-1" data-name="Path 563" transform="translate(-39.753 -56.674)"/>
                <path id="Path_564" d="M81.46 108.37h.482l.023.072-.473.056a2.991 2.991 0 0 1-.032-.128z" class="cls-1" data-name="Path 564" transform="translate(-60.468 -72.805)"/>
                <path id="Path_565" d="M32.879 55.353v.247h-.144c-.036-.082-.069-.164-.105-.249z" class="cls-1" data-name="Path 565" transform="translate(-21.922 -37.183)"/>
                <path id="Path_566" d="M87.66 108.616v-.246h.14l.105.246z" class="cls-1" data-name="Path 566" transform="translate(-65.057 -72.805)"/>
                <path id="Path_567" d="M78.82 109.076v-.246h.138l.112.24z" class="cls-1" data-name="Path 567" transform="translate(-58.496 -73.114)"/>
                <path id="Path_568" d="M354 53.336v-.246h.138l.112.24z" class="cls-1" data-name="Path 568" transform="translate(-263.284 -35.665)"/>
                <path id="Path_569" d="M25.79 61.009v-.3h.148v.3z" class="cls-1" data-name="Path 569" transform="translate(-17.327 -40.784)"/>
                <path id="Path_570" d="M216.86 1.24V1h.14c.036.082.072.164.112.243z" class="cls-1" data-name="Path 570" transform="translate(-160.943 -.669)"/>
                <path id="Path_571" d="M201.392 4.638h-.482v-.075l.486-.053z" class="cls-1" data-name="Path 571" transform="translate(-149.134 -3.027)"/>
                <path id="Path_572" d="M203.972 4.638h-.482l-.02-.075.5-.053z" class="cls-1" data-name="Path 572" transform="translate(-151.036 -3.027)"/>
                <path id="Path_573" d="M310.864 103.76v.3h-.144v-.3z" class="cls-1" data-name="Path 573" transform="translate(-234.206 -69.707)"/>
                <path id="Path_574" d="M38.186 10v.246h-.141A8.643 8.643 0 0 1 37.94 10z" class="cls-1" data-name="Path 574" transform="translate(-25.49 -6.715)"/>
                <path id="Path_575" d="M35.483 11.39v.246h-.138c-.039-.082-.075-.164-.115-.243z" class="cls-1" data-name="Path 575" transform="translate(-23.669 -7.649)"/>
                <path id="Path_576" d="M108.159 105.922h-.289v-.272h.19z" class="cls-1" data-name="Path 576" transform="translate(-80.058 -70.977)"/>
                <path id="Path_577" d="M111.1 105.738h-.482l-.02-.072.486-.056c.005.026.016.069.016.128z" class="cls-1" data-name="Path 577" transform="translate(-82.098 -70.95)"/>
                <path id="Path_578" d="M333.13 50.67l.706.105c-.138.023-.269.053-.407.062-.043.004-.102-.059-.299-.167z" class="cls-1" data-name="Path 578" transform="translate(-249.262 -34.039)"/>
                <path id="Path_579" d="M23.94 51.73h.482l.023.069-.486.059z" class="cls-1" data-name="Path 579" transform="translate(-16.084 -34.751)"/>
                <path id="Path_580" d="M320.38 24.786v-.246h.141c.036.079.072.161.112.243z" class="cls-1" data-name="Path 580" transform="translate(-240.696 -16.484)"/>
                <path id="Path_581" d="M323.562 24.656l-.7-.1c.135-.023.269-.053.407-.066.047-.008.106.048.293.166z" class="cls-1" data-name="Path 581" transform="translate(-242.363 -16.449)"/>
                <path id="Path_582" d="M340.3 29.108h-.482l-.023-.072.473-.056a.856.856 0 0 0 .032.128z" class="cls-1" data-name="Path 582" transform="translate(-253.737 -19.467)"/>
                <path id="Path_583" d="M44.31 85.5v-.25h.141c.036.085.072.167.105.249z" class="cls-1" data-name="Path 583" transform="translate(-29.769 -57.272)"/>
                <path id="Path_584" d="M65.69 105.7v-.148h.1v.148z" class="cls-1" data-name="Path 584" transform="translate(-46.977 -70.91)"/>
                <path id="Path_585" d="M120.645 105.12v.151h-.1v-.151z" class="cls-1" data-name="Path 585" transform="translate(-89.455 -70.621)"/>
                <path id="Path_586" d="M38.253 92.628l-.253-.1.092-.046.2.121z" class="cls-1" data-name="Path 586" transform="translate(-25.53 -62.129)"/>
                <ellipse id="Ellipse_290" cx=".069" cy=".105" class="cls-1" data-name="Ellipse 290" rx=".069" ry=".105" transform="translate(17.471 27.778)"/>
                <path id="Path_587" d="M174.53 109.8v-.151h.1v.151z" class="cls-1" data-name="Path 587" transform="translate(-129.512 -73.665)"/>
                <path id="Path_588" d="M76.405 108.75v.148h-.1v-.148z" class="cls-1" data-name="Path 588" transform="translate(-56.627 -73.06)"/>
                <path id="Path_589" d="M97.638 111v.151h-.1V111z" class="cls-1" data-name="Path 589" transform="translate(-72.381 -74.572)"/>
                <path id="Path_590" d="M148.86 110.258v-.148h.1v.148z" class="cls-1" data-name="Path 590" transform="translate(-110.463 -73.974)"/>
                <ellipse id="Ellipse_291" cx=".069" cy=".105" class="cls-1" data-name="Ellipse 291" rx=".069" ry=".105" transform="translate(39.064 36.104)"/>
                <path id="Path_591" d="M347.07 75.361v-.151h.1v.151z" class="cls-1" data-name="Path 591" transform="translate(-258.628 -50.526)"/>
                <path id="Path_592" d="M38.355 81.11v.148h-.1v-.148z" class="cls-1" data-name="Path 592" transform="translate(-25.705 -54.49)"/>
                <path id="Path_593" d="M357.8 82v.148h-.1V82z" class="cls-1" data-name="Path 593" transform="translate(-265.77 -55.088)"/>
                <path id="Path_594" d="M339.11 94.848V94.7h.1v.148z" class="cls-1" data-name="Path 594" transform="translate(-253.28 -63.621)"/>
                <path id="Path_595" d="M51.625 101.5v.164h-.1v-.148z" class="cls-1" data-name="Path 595" transform="translate(-34.62 -68.189)"/>
                <path id="Path_596" d="M54.18 77.158V77h.1v.148z" class="cls-1" data-name="Path 596" transform="translate(-36.401 -51.729)"/>
                <path id="Path_597" d="M355.108 77v.148H355V77z" class="cls-1" data-name="Path 597" transform="translate(-263.956 -51.729)"/>
                <path id="Path_598" d="M27.64 80.8v-.15h.1v.15z" class="cls-1" data-name="Path 598" transform="translate(-18.57 -54.181)"/>
                <path id="Path_599" d="M336.535 29.43l-.2.121-.092-.049.24-.1z" class="cls-1" data-name="Path 599" transform="translate(-251.352 -19.749)"/>
                <path id="Path_600" d="M337 29.151l.2-.121.092.049-.236.1z" class="cls-1" data-name="Path 600" transform="translate(-251.862 -19.5)"/>
                <path id="Path_601" d="M17 26.878v-.148h.1v.148z" class="cls-1" data-name="Path 601" transform="translate(-11.421 -17.955)"/>
                <path id="Path_602" d="M340.978 26.27v.151h-.1v-.151z" class="cls-1" data-name="Path 602" transform="translate(-254.469 -17.646)"/>
                <path id="Path_603" d="M326.72 24.608v-.148h.1v.148z" class="cls-1" data-name="Path 603" transform="translate(-244.956 -16.43)"/>
                <path id="Path_604" d="M322.32 24.2l-.24-.105.092-.046.2.121z" class="cls-1" data-name="Path 604" transform="translate(-241.839 -16.155)"/>
                <path id="Path_605" d="M299.29 20.528v-.148h.1v.148z" class="cls-1" data-name="Path 605" transform="translate(-226.527 -13.689)"/>
                <path id="Path_606" d="M16.13 47.268v-.148h.1v.148z" class="cls-1" data-name="Path 606" transform="translate(-10.837 -31.654)"/>
                <path id="Path_607" d="M26.75 42.7v-.15h.1v.15z" class="cls-1" data-name="Path 607" transform="translate(-17.972 -28.584)"/>
                <ellipse id="Ellipse_292" cx=".069" cy=".105" class="cls-1" data-name="Ellipse 292" rx=".069" ry=".105" transform="translate(86.68 13.5)"/>
                <path id="Path_608" d="M22.425 39.87v.148h-.1v-.148z" class="cls-1" data-name="Path 608" transform="translate(-15.002 -26.783)"/>
                <path id="Path_609" d="M353.27 36.848V36.7h.1v.148z" class="cls-1" data-name="Path 609" transform="translate(-262.793 -24.653)"/>
                <path id="Path_610" d="M341.436 36.65l.236.1-.092.049-.2-.121z" class="cls-1" data-name="Path 610" transform="translate(-254.805 -24.62)"/>
                <path id="Path_611" d="M340.906 36.431l-.236-.1.092-.049.2.121z" class="cls-1" data-name="Path 611" transform="translate(-254.328 -24.371)"/>
                <path id="Path_612" d="M323.18 33.218v-.148h.1v.148z" class="cls-1" data-name="Path 612" transform="translate(-242.578 -22.215)"/>
                <path id="Path_613" d="M3.742 18.319H3.45v-.049h.292z" class="cls-1" data-name="Path 613" transform="translate(-2.318 -12.271)"/>
                <path id="Path_614" d="M40.62 11.47h.289v.049h-.289z" class="cls-1" data-name="Path 614" transform="translate(-27.29 -7.703)"/>
                <path id="Path_615" d="M31.275 58.9v.148h-.1V58.9z" class="cls-1" data-name="Path 615" transform="translate(-20.948 -39.568)"/>
                <path id="Path_616" d="M32.06 60.861v-.151h.1v.151z" class="cls-1" data-name="Path 616" transform="translate(-21.539 -40.784)"/>
                <path id="Path_617" d="M343.615 60.24l-.2.121-.092-.046.236-.105z" class="cls-1" data-name="Path 617" transform="translate(-256.109 -40.449)"/>
                <path id="Path_618" d="M54.278 54.82v.148h-.1v-.148z" class="cls-1" data-name="Path 618" transform="translate(-36.401 -36.827)"/>
                <path id="Path_619" d="M360.445 53.46v.151h-.1v-.151z" class="cls-1" data-name="Path 619" transform="translate(-267.55 -35.914)"/>
                <path id="Path_620" d="M53.4 53v.148h-.1V53z" class="cls-1" data-name="Path 620" transform="translate(-35.809 -35.605)"/>
                <path id="Path_621" d="M25.87 18.7v-.15h.1v.15z" class="cls-1" data-name="Path 621" transform="translate(-17.381 -12.459)"/>
                <path id="Path_622" d="M323.736 97.82l.24.105-.092.046-.2-.121z" class="cls-1" data-name="Path 622" transform="translate(-242.913 -65.717)"/>
                <path id="Path_623" d="M315.22 104.368v-.148h.1v.148z" class="cls-1" data-name="Path 623" transform="translate(-237.23 -70.016)"/>
            </g>
        </g>
        <g id="Group_2366" data-name="Group 2366" transform="translate(-6.842 -131)">
            <path id="Path_18" d="M147.6 169.854l-2.37-4.1-2.37-4.106h9.481l-2.37 4.106z" class="cls-2" data-name="Path 18" transform="translate(-85.857 74.678)"/>
            <path id="Path_19" d="M185.428 169.854l-2.37-4.1-2.371-4.106h9.482l-2.37 4.106z" class="cls-3" data-name="Path 19" transform="translate(-114.202 74.678)"/>
            <path id="Path_20" d="M223.3 169.854l-2.37-4.1-2.371-4.106h9.482l-2.371 4.106z" class="cls-4" data-name="Path 20" transform="translate(-142.58 74.678)"/>
            <path id="Path_21" d="M148.3 128.883l2.371 4.106 2.37 4.106h-9.482l2.37-4.106z" class="cls-5" data-name="Path 21" transform="translate(-86.379 99.225)"/>
            <path id="Path_22" d="M241.992 161.643l2.37 4.106 2.372 4.1h-9.483l2.37-4.1z" class="cls-6" data-name="Path 22" transform="translate(-156.587 74.678)"/>
            <path id="Path_23" d="M166.513 137.1l-2.371-4.106-2.371-4.106h9.482l-2.371 4.106z" class="cls-7" data-name="Path 23" transform="translate(-100.029 99.225)"/>
            <path id="Path_24" d="M204.342 137.095l-2.371-4.106-2.371-4.106h9.482l-2.371 4.106z" class="cls-8" data-name="Path 24" transform="translate(-128.375 99.225)"/>
            <path id="Path_25" d="M185.425 104.338l-2.371-4.106-2.37-4.106h9.482l-2.37 4.106z" class="cls-9" data-name="Path 25" transform="translate(-114.2 123.77)"/>
            <path id="Path_26" d="M186.034 63.372l2.371 4.106 2.371 4.105h-9.483l2.371-4.105z" class="cls-10" data-name="Path 26" transform="translate(-114.656 148.313)"/>
            <path id="Path_51" d="M204.3 96.126l2.37 4.106 2.37 4.106h-9.482l2.371-4.106z" class="cls-2" data-name="Path 51" transform="translate(-128.345 123.77)"/>
            <path id="Path_52" d="M129.383 161.759l2.37 4.106 2.371 4.105h-9.482l2.371-4.105z" class="cls-11" data-name="Path 52" transform="translate(-72.207 74.59)"/>
        </g>
    </g>
</svg>
